<svg width="52" height="62" viewBox="0 0 52 62" fill="none" xmlns="http://www.w3.org/2000/svg">
<path d="M31.5823 1H6.64814V34.4146H3.05118C1.22739 34.4146 0.314137 36.5823 1.60364 37.85L24.5526 60.4106C25.3519 61.1965 26.648 61.1965 27.4475 60.4106L50.3963 37.85C51.6859 36.5823 50.7725 34.4146 48.9489 34.4146H45.3518V1H31.5823Z" stroke="black" stroke-width="1.8" stroke-miterlimit="10" stroke-linecap="round" stroke-linejoin="round"/>
<path d="M29.4136 8.08356L22.5879 21.9014" stroke="black" stroke-width="1.8" stroke-miterlimit="10" stroke-linecap="round" stroke-linejoin="round"/>
<path d="M35.1066 19.7165C35.1066 21.1982 33.8848 22.3994 32.3775 22.3994C30.8703 22.3994 29.6484 21.1982 29.6484 19.7165C29.6484 18.2348 30.8703 17.0336 32.3775 17.0336C33.8848 17.0336 35.1066 18.2348 35.1066 19.7165Z" stroke="black" stroke-width="1.8" stroke-miterlimit="10" stroke-linecap="round" stroke-linejoin="round"/>
<path d="M16.8945 10.2702C16.8945 8.78849 18.1164 7.58727 19.6236 7.58727C21.1308 7.58727 22.3527 8.78849 22.3527 10.2702C22.3527 11.7519 21.1308 12.9531 19.6236 12.9531C18.1164 12.9531 16.8945 11.7519 16.8945 10.2702Z" stroke="black" stroke-width="1.8" stroke-miterlimit="10" stroke-linecap="round" stroke-linejoin="round"/>
<path d="M30.9616 31.0502H26.9688V40.7349" stroke="black" stroke-width="1.8" stroke-miterlimit="10" stroke-linecap="round" stroke-linejoin="round"/>
<path d="M26.9688 35.8003H30.6444" stroke="black" stroke-width="1.8" stroke-miterlimit="10" stroke-linecap="round" stroke-linejoin="round"/>
<path d="M22.008 35.8944C22.008 38.5884 19.7864 40.7725 17.046 40.7725C14.3056 40.7725 12.084 38.5884 12.084 35.8944C12.084 33.2004 14.3056 31.0164 17.046 31.0164C19.7864 31.0164 22.008 33.2004 22.008 35.8944Z" stroke="black" stroke-width="1.8" stroke-miterlimit="10" stroke-linecap="round" stroke-linejoin="round"/>
<path d="M39.9186 31.0502H35.9258V40.7349" stroke="black" stroke-width="1.8" stroke-miterlimit="10" stroke-linecap="round" stroke-linejoin="round"/>
<path d="M35.9258 35.8003H39.6014" stroke="black" stroke-width="1.8" stroke-miterlimit="10" stroke-linecap="round" stroke-linejoin="round"/>
</svg>
