<svg width="4" height="8" viewBox="0 0 4 8" fill="none" xmlns="http://www.w3.org/2000/svg">
<path d="M3.99999 3.98403C4.00037 4.05009 3.98777 4.11558 3.9629 4.17674C3.93803 4.23791 3.90138 4.29353 3.85507 4.34044L0.856606 7.35237C0.762502 7.4469 0.634871 7.5 0.501788 7.5C0.368706 7.5 0.241074 7.4469 0.14697 7.35237C0.0528668 7.25784 -1.6189e-08 7.12964 -2.20324e-08 6.99596C-2.78757e-08 6.86228 0.0528668 6.73407 0.14697 6.63955L2.79561 3.98403L0.151968 1.32851C0.0700965 1.23248 0.0273152 1.10895 0.0321733 0.982614C0.0370314 0.856275 0.089171 0.73643 0.178173 0.647029C0.267174 0.557628 0.386482 0.505255 0.512256 0.500375C0.638029 0.495495 0.761004 0.538467 0.856606 0.620706L3.85507 3.63264C3.94739 3.72614 3.99944 3.85234 3.99999 3.98403Z" fill="#676767"/>
</svg>
