<svg width="18" height="13" viewBox="0 0 18 13" fill="none" xmlns="http://www.w3.org/2000/svg">
<path d="M16.3637 0H1.63635C0.732623 0 0 0.727533 0 1.62502V11.375C0 12.2725 0.732623 13 1.63635 13H16.3637C17.2674 13 18 12.2725 18 11.375V1.62502C18 0.727533 17.2674 0 16.3637 0ZM1.63635 0.812509H16.3637C16.4571 0.813102 16.5498 0.829581 16.6377 0.861246L9.55637 7.89345C9.25223 8.19746 8.75751 8.19907 8.45137 7.89704L8.44775 7.89345L1.36227 0.861246C1.45016 0.829581 1.54287 0.813067 1.63635 0.812509ZM0.818193 11.375V1.62502C0.814009 1.57771 0.814009 1.53013 0.818193 1.48282L5.88274 6.5L0.818193 11.5172C0.814009 11.4699 0.814009 11.4223 0.818193 11.375ZM16.3637 12.1875H1.63635C1.54286 12.1869 1.45016 12.1704 1.36227 12.1388L6.46363 7.07284L7.86682 8.46628C8.49032 9.08779 9.50307 9.08967 10.1289 8.47051L10.1332 8.46628L11.5364 7.07284L16.6377 12.1388C16.5499 12.1704 16.4572 12.1869 16.3637 12.1875ZM17.1818 11.5172L12.1173 6.5L17.1818 1.48282C17.186 1.53013 17.186 1.57771 17.1818 1.62502V11.375C17.186 11.4223 17.186 11.4699 17.1818 11.5172Z" fill="white"/>
</svg>
