<svg width="16" height="12" viewBox="0 0 16 12" fill="none" xmlns="http://www.w3.org/2000/svg">
<path d="M10.3673 6.70844L9.02731 8.14262C8.4839 8.72428 7.52778 8.73681 6.97262 8.14262L5.63253 6.70844L0.819529 11.8589C0.998685 11.9473 1.19622 12 1.40622 12H14.5937C14.8037 12 15.0012 11.9473 15.1803 11.8589L10.3673 6.70844Z" fill="#273969"/>
<path d="M14.5938 0H1.40625C1.19625 0 0.998719 0.0527326 0.819625 0.141098L5.96266 5.64512L5.96375 5.64592L5.96416 5.64679L7.63644 7.43643C7.81406 7.62589 8.186 7.62589 8.36362 7.43643L10.0356 5.64709L10.0363 5.64592L10.0374 5.64512L15.1803 0.141065C15.0012 0.052666 14.8038 0 14.5938 0ZM0.149562 0.840388C0.056875 1.04032 0 1.26225 0 1.49998V10.4998C0 10.7376 0.0568125 10.9595 0.149531 11.1594L4.97087 6.00008L0.149562 0.840388ZM15.8504 0.840321L11.0292 6.00008L15.8504 11.1595C15.9431 10.9596 16 10.7376 16 10.4998V1.49998C16 1.26218 15.9431 1.04025 15.8504 0.840321Z" fill="#273969"/>
</svg>
