<svg width="25" height="19" viewBox="0 0 25 19" fill="none" xmlns="http://www.w3.org/2000/svg">
<path d="M22.3198 0.4646H2.41828C1.19705 0.4646 0.207031 1.45461 0.207031 2.6759V15.9435C0.207031 17.1648 1.19705 18.1548 2.41828 18.1548H22.3197C23.541 18.1548 24.531 17.1648 24.531 15.9435V2.6759C24.531 1.45461 23.541 0.4646 22.3198 0.4646ZM2.41828 1.57025H22.3197C22.4461 1.57106 22.5713 1.59348 22.6901 1.63657L13.1208 11.2059C12.7098 11.6196 12.0413 11.6218 11.6276 11.2108L11.6227 11.2059L2.04791 1.63657C2.16668 1.59348 2.29196 1.57101 2.41828 1.57025ZM1.31268 15.9435V2.6759C1.30703 2.61152 1.30703 2.54677 1.31268 2.4824L8.15656 9.3097L1.31268 16.137C1.30703 16.0726 1.30703 16.0079 1.31268 15.9435ZM22.3198 17.0491H2.41828C2.29194 17.0483 2.16668 17.0259 2.04791 16.9828L8.94153 10.0892L10.8377 11.9854C11.6803 12.8311 13.0488 12.8337 13.8946 11.9911L13.9003 11.9854L15.7965 10.0892L22.6901 16.9828C22.5714 17.0259 22.4461 17.0484 22.3198 17.0491ZM23.4254 16.137L16.5815 9.3097L23.4254 2.4824C23.431 2.54677 23.431 2.61152 23.4254 2.6759V15.9435C23.431 16.0079 23.431 16.0726 23.4254 16.137Z" fill="black"/>
</svg>
