<svg width="18" height="13" viewBox="0 0 18 13" fill="none" xmlns="http://www.w3.org/2000/svg">
<path d="M11.6633 7.26748L10.1557 8.82118C9.54439 9.45131 8.46875 9.46488 7.8442 8.82118L6.33659 7.26748L0.92197 12.8471C1.12352 12.9429 1.34574 13 1.58199 13H16.4179C16.6542 13 16.8763 12.9429 17.0778 12.8472L11.6633 7.26748Z" fill="#E21F2B"/>
<path d="M16.418 0H1.58203C1.34578 0 1.12356 0.057127 0.922078 0.152856L6.70799 6.11555L6.70922 6.11641L6.70968 6.11735L8.59099 8.05613C8.79082 8.26138 9.20925 8.26138 9.40908 8.05613L11.29 6.11768L11.2909 6.11641L11.2921 6.11555L17.0779 0.15282C16.8764 0.0570548 16.6542 0 16.418 0ZM0.168258 0.91042C0.0639844 1.12701 0 1.36744 0 1.62498V11.3748C0 11.6324 0.0639141 11.8728 0.168223 12.0894L5.59223 6.50009L0.168258 0.91042ZM17.8317 0.910348L12.4078 6.50009L17.8317 12.0895C17.936 11.8729 18 11.6324 18 11.3748V1.62498C18 1.36736 17.936 1.12694 17.8317 0.910348Z" fill="#E21F2B"/>
</svg>
