<svg width="19" height="14" viewBox="0 0 19 14" fill="none" xmlns="http://www.w3.org/2000/svg">
<path d="M12.3112 7.76748L10.7199 9.32117C10.0746 9.9513 8.93924 9.96488 8.27999 9.32117L6.68863 7.76748L0.973191 13.3471C1.18594 13.4429 1.42051 13.5 1.66988 13.5H17.33C17.5794 13.5 17.8139 13.4429 18.0266 13.3472L12.3112 7.76748Z" fill="white"/>
<path d="M17.3301 0.5H1.66992C1.42055 0.5 1.18598 0.557127 0.973305 0.652856L7.08065 6.61554L7.08195 6.61641L7.08244 6.61735L9.06827 8.55613C9.2792 8.76138 9.72088 8.76138 9.9318 8.55613L11.9172 6.61768L11.9181 6.61641L11.9194 6.61554L18.0266 0.65282C17.8139 0.557055 17.5795 0.5 17.3301 0.5ZM0.177605 1.41042C0.0675391 1.62701 0 1.86744 0 2.12498V11.8748C0 12.1324 0.0674648 12.3728 0.177568 12.5894L5.90291 7.00009L0.177605 1.41042ZM18.8224 1.41035L13.0971 7.00009L18.8224 12.5895C18.9325 12.3729 19 12.1324 19 11.8748V2.12498C19 1.86736 18.9325 1.62694 18.8224 1.41035Z" fill="white"/>
</svg>
