<svg width="22" height="20" viewBox="0 0 22 20" fill="none" xmlns="http://www.w3.org/2000/svg">
<path d="M21.7411 13.0493C21.5184 12.6624 21.1742 12.3643 20.7647 12.2036C20.3553 12.0428 19.9047 12.029 19.4866 12.1643L18.4934 12.4873V1.40386C18.4927 1.0313 18.3478 0.674231 18.0903 0.411028C17.8329 0.147825 17.484 -6.09141e-07 17.1203 0H4.87164C4.50791 -6.09141e-07 4.15903 0.147825 3.90159 0.411028C3.64416 0.674231 3.4992 1.0313 3.49855 1.40386V11.0682C3.11468 11.1432 2.72482 11.1816 2.33402 11.1826H0.62075C0.456117 11.1826 0.298227 11.2496 0.181813 11.3688C0.0654002 11.4881 0 11.6498 0 11.8184C0 11.987 0.0654002 12.1488 0.181813 12.268C0.298227 12.3872 0.456117 12.4542 0.62075 12.4542H2.33402C3.64116 12.4557 4.92566 12.1049 6.05852 11.4369L10.8507 8.59613C11.0464 8.50593 11.2676 8.4924 11.4724 8.55809C11.6771 8.62378 11.8513 8.76413 11.9618 8.95255C12.0723 9.14096 12.1114 9.36434 12.0719 9.58037C12.0323 9.79639 11.9167 9.99004 11.7471 10.1246L7.17338 12.8815C6.9193 13.0357 6.72157 13.2709 6.61045 13.5512C6.49933 13.8315 6.48096 14.1413 6.55814 14.4333C6.63533 14.7253 6.80381 14.9833 7.0378 15.1679C7.2718 15.3525 7.5584 15.4534 7.85373 15.4552H12.3057C13.0879 15.4562 13.8654 15.3318 14.61 15.0865L19.8665 13.3571C20.0153 13.3091 20.1756 13.3141 20.3212 13.3714C20.4669 13.4286 20.5893 13.5348 20.6685 13.6724C20.7182 13.7577 20.7493 13.853 20.7596 13.9518C20.7699 14.0506 20.7591 14.1505 20.7281 14.2447C20.6983 14.3396 20.6489 14.4268 20.5834 14.5005C20.5179 14.5742 20.4377 14.6327 20.3482 14.6719L13.4256 17.7518C13.3341 17.7904 13.2381 17.8169 13.14 17.8306L6.68423 18.7055C6.26042 18.7606 5.83001 18.6919 5.44273 18.5071L2.85297 17.2686C2.30399 17.0057 1.70595 16.8677 1.09997 16.8642H0.62075C0.456117 16.8642 0.298227 16.9312 0.181813 17.0504C0.0654002 17.1696 0 17.3314 0 17.5C0 17.6686 0.0654002 17.8303 0.181813 17.9496C0.298227 18.0688 0.456117 18.1358 0.62075 18.1358H1.09997C1.52352 18.137 1.94185 18.2316 2.32657 18.413L4.91634 19.6617C5.37856 19.8843 5.88298 19.9998 6.39372 20C6.54742 20.0004 6.70094 19.9893 6.85308 19.9669L13.3089 19.0946C13.5214 19.0674 13.7289 19.0082 13.9247 18.9191L20.8423 15.8469C21.0912 15.7359 21.3144 15.5723 21.4973 15.3668C21.6802 15.1612 21.8186 14.9184 21.9034 14.6543C21.9883 14.3902 22.0177 14.1106 21.9897 13.8341C21.9618 13.5575 21.8771 13.29 21.7411 13.0493ZM13.5721 1.27162C13.543 1.94971 13.2595 2.59015 12.7807 3.05944C12.302 3.52873 11.6648 3.79067 11.0022 3.79067C10.3395 3.79067 9.70238 3.52873 9.22362 3.05944C8.74485 2.59015 8.46137 1.94971 8.43226 1.27162H13.5721ZM14.2301 13.8861C13.6082 14.0909 12.9589 14.1947 12.3057 14.1938H7.85869C7.843 14.1939 7.82746 14.1906 7.81313 14.1841C7.7988 14.1775 7.78602 14.1679 7.77565 14.1558C7.76529 14.1437 7.75758 14.1295 7.75306 14.1141C7.74853 14.0988 7.7473 14.0825 7.74944 14.0666C7.74904 14.0466 7.7539 14.0268 7.76351 14.0094C7.77312 13.9919 7.78713 13.9775 7.80407 13.9674L12.3703 11.2207C12.8368 10.9218 13.1714 10.4486 13.3032 9.90131C13.435 9.35407 13.3537 8.77576 13.0765 8.28886C12.7992 7.80196 12.3479 7.44468 11.818 7.29269C11.2881 7.1407 10.7212 7.20593 10.2374 7.47456L5.44273 10.3154C5.21617 10.45 4.98147 10.5698 4.74004 10.674V1.40386C4.74004 1.38628 4.74346 1.36887 4.75011 1.35266C4.75675 1.33645 4.76648 1.32175 4.77874 1.30944C4.79099 1.29713 4.80552 1.28744 4.82147 1.28094C4.83742 1.27445 4.85448 1.27128 4.87164 1.27162H7.19077C7.19077 2.30699 7.59232 3.29995 8.3071 4.03207C9.02188 4.76418 9.99132 5.17548 11.0022 5.17548C12.013 5.17548 12.9825 4.76418 13.6972 4.03207C14.412 3.29995 14.8136 2.30699 14.8136 1.27162H17.1327C17.1499 1.27128 17.1669 1.27445 17.1829 1.28094C17.1988 1.28744 17.2133 1.29713 17.2256 1.30944C17.2379 1.32175 17.2476 1.33645 17.2542 1.35266C17.2609 1.36887 17.2643 1.38628 17.2643 1.40386V12.8866L14.2301 13.8861Z" fill="#273969"/>
</svg>
