<svg width="13" height="12" viewBox="0 0 13 12" fill="none" xmlns="http://www.w3.org/2000/svg">
<path d="M9.45455 1.8C9.45455 1.44399 9.55851 1.09598 9.7533 0.799974C9.94809 0.503966 10.225 0.273255 10.5489 0.137018C10.8728 0.000779915 11.2292 -0.0348661 11.5731 0.0345873C11.917 0.104041 12.2329 0.275474 12.4808 0.527208C12.7287 0.778943 12.8975 1.09967 12.9659 1.44884C13.0343 1.798 12.9992 2.15992 12.8651 2.48883C12.7309 2.81774 12.5037 3.09886 12.2121 3.29664C11.9206 3.49443 11.5779 3.6 11.2273 3.6C10.7571 3.6 10.3062 3.41036 9.97376 3.07279C9.64131 2.73523 9.45455 2.27739 9.45455 1.8ZM0.590909 2.4H7.68182C7.83854 2.4 7.98884 2.33679 8.09965 2.22426C8.21047 2.11174 8.27273 1.95913 8.27273 1.8C8.27273 1.64087 8.21047 1.48826 8.09965 1.37574C7.98884 1.26321 7.83854 1.2 7.68182 1.2H0.590909C0.43419 1.2 0.28389 1.26321 0.173073 1.37574C0.0622563 1.48826 0 1.64087 0 1.8C0 1.95913 0.0622563 2.11174 0.173073 2.22426C0.28389 2.33679 0.43419 2.4 0.590909 2.4ZM4.13636 4.2C3.77062 4.20104 3.41415 4.31693 3.11583 4.53176C2.8175 4.7466 2.59191 5.04987 2.47 5.4H0.590909C0.43419 5.4 0.28389 5.46321 0.173073 5.57573C0.0622563 5.68826 0 5.84087 0 6C0 6.15913 0.0622563 6.31174 0.173073 6.42426C0.28389 6.53678 0.43419 6.6 0.590909 6.6H2.47C2.5784 6.91132 2.76906 7.18637 3.02111 7.39504C3.27315 7.60371 3.57688 7.73796 3.89903 7.7831C4.22119 7.82823 4.54937 7.78252 4.84765 7.65095C5.14593 7.51938 5.40282 7.30704 5.5902 7.03715C5.77759 6.76727 5.88825 6.45025 5.91007 6.12078C5.9319 5.79131 5.86404 5.4621 5.71393 5.16916C5.56383 4.87623 5.33725 4.63087 5.05901 4.45993C4.78076 4.289 4.46157 4.19907 4.13636 4.2ZM12.4091 5.4H7.68182C7.5251 5.4 7.3748 5.46321 7.26398 5.57573C7.15317 5.68826 7.09091 5.84087 7.09091 6C7.09091 6.15913 7.15317 6.31174 7.26398 6.42426C7.3748 6.53678 7.5251 6.6 7.68182 6.6H12.4091C12.5658 6.6 12.7161 6.53678 12.8269 6.42426C12.9377 6.31174 13 6.15913 13 6C13 5.84087 12.9377 5.68826 12.8269 5.57573C12.7161 5.46321 12.5658 5.4 12.4091 5.4ZM5.31818 9.6H0.590909C0.43419 9.6 0.28389 9.66321 0.173073 9.77573C0.0622563 9.88825 0 10.0409 0 10.2C0 10.3591 0.0622563 10.5117 0.173073 10.6243C0.28389 10.7368 0.43419 10.8 0.590909 10.8H5.31818C5.4749 10.8 5.6252 10.7368 5.73602 10.6243C5.84683 10.5117 5.90909 10.3591 5.90909 10.2C5.90909 10.0409 5.84683 9.88825 5.73602 9.77573C5.6252 9.66321 5.4749 9.6 5.31818 9.6ZM12.4091 9.6H10.53C10.3906 9.19967 10.1163 8.86226 9.75562 8.64742C9.39493 8.43257 8.97104 8.35412 8.55888 8.42592C8.14673 8.49772 7.77284 8.71516 7.5033 9.0398C7.23376 9.36444 7.08593 9.77539 7.08593 10.2C7.08593 10.6246 7.23376 11.0356 7.5033 11.3602C7.77284 11.6848 8.14673 11.9023 8.55888 11.9741C8.97104 12.0459 9.39493 11.9674 9.75562 11.7526C10.1163 11.5377 10.3906 11.2003 10.53 10.8H12.4091C12.5658 10.8 12.7161 10.7368 12.8269 10.6243C12.9377 10.5117 13 10.3591 13 10.2C13 10.0409 12.9377 9.88825 12.8269 9.77573C12.7161 9.66321 12.5658 9.6 12.4091 9.6Z" fill="white"/>
<path d="M9.45455 1.8C9.45455 1.44399 9.55851 1.09598 9.7533 0.799974C9.94809 0.503966 10.225 0.273255 10.5489 0.137018C10.8728 0.000779915 11.2292 -0.0348661 11.5731 0.0345873C11.917 0.104041 12.2329 0.275474 12.4808 0.527208C12.7287 0.778943 12.8975 1.09967 12.9659 1.44884C13.0343 1.798 12.9992 2.15992 12.8651 2.48883C12.7309 2.81774 12.5037 3.09886 12.2121 3.29664C11.9206 3.49443 11.5779 3.6 11.2273 3.6C10.7571 3.6 10.3062 3.41036 9.97376 3.07279C9.64131 2.73523 9.45455 2.27739 9.45455 1.8ZM0.590909 2.4H7.68182C7.83854 2.4 7.98884 2.33679 8.09965 2.22426C8.21047 2.11174 8.27273 1.95913 8.27273 1.8C8.27273 1.64087 8.21047 1.48826 8.09965 1.37574C7.98884 1.26321 7.83854 1.2 7.68182 1.2H0.590909C0.43419 1.2 0.28389 1.26321 0.173073 1.37574C0.0622563 1.48826 0 1.64087 0 1.8C0 1.95913 0.0622563 2.11174 0.173073 2.22426C0.28389 2.33679 0.43419 2.4 0.590909 2.4ZM4.13636 4.2C3.77062 4.20104 3.41415 4.31693 3.11583 4.53176C2.8175 4.7466 2.59191 5.04987 2.47 5.4H0.590909C0.43419 5.4 0.28389 5.46321 0.173073 5.57573C0.0622563 5.68826 0 5.84087 0 6C0 6.15913 0.0622563 6.31174 0.173073 6.42426C0.28389 6.53678 0.43419 6.6 0.590909 6.6H2.47C2.5784 6.91132 2.76906 7.18637 3.02111 7.39504C3.27315 7.60371 3.57688 7.73796 3.89903 7.7831C4.22119 7.82823 4.54937 7.78252 4.84765 7.65095C5.14593 7.51938 5.40282 7.30704 5.5902 7.03715C5.77759 6.76727 5.88825 6.45025 5.91007 6.12078C5.9319 5.79131 5.86404 5.4621 5.71393 5.16916C5.56383 4.87623 5.33725 4.63087 5.05901 4.45993C4.78076 4.289 4.46157 4.19907 4.13636 4.2ZM12.4091 5.4H7.68182C7.5251 5.4 7.3748 5.46321 7.26398 5.57573C7.15317 5.68826 7.09091 5.84087 7.09091 6C7.09091 6.15913 7.15317 6.31174 7.26398 6.42426C7.3748 6.53678 7.5251 6.6 7.68182 6.6H12.4091C12.5658 6.6 12.7161 6.53678 12.8269 6.42426C12.9377 6.31174 13 6.15913 13 6C13 5.84087 12.9377 5.68826 12.8269 5.57573C12.7161 5.46321 12.5658 5.4 12.4091 5.4ZM5.31818 9.6H0.590909C0.43419 9.6 0.28389 9.66321 0.173073 9.77573C0.0622563 9.88825 0 10.0409 0 10.2C0 10.3591 0.0622563 10.5117 0.173073 10.6243C0.28389 10.7368 0.43419 10.8 0.590909 10.8H5.31818C5.4749 10.8 5.6252 10.7368 5.73602 10.6243C5.84683 10.5117 5.90909 10.3591 5.90909 10.2C5.90909 10.0409 5.84683 9.88825 5.73602 9.77573C5.6252 9.66321 5.4749 9.6 5.31818 9.6ZM12.4091 9.6H10.53C10.3906 9.19967 10.1163 8.86226 9.75562 8.64742C9.39493 8.43257 8.97104 8.35412 8.55888 8.42592C8.14673 8.49772 7.77284 8.71516 7.5033 9.0398C7.23376 9.36444 7.08593 9.77539 7.08593 10.2C7.08593 10.6246 7.23376 11.0356 7.5033 11.3602C7.77284 11.6848 8.14673 11.9023 8.55888 11.9741C8.97104 12.0459 9.39493 11.9674 9.75562 11.7526C10.1163 11.5377 10.3906 11.2003 10.53 10.8H12.4091C12.5658 10.8 12.7161 10.7368 12.8269 10.6243C12.9377 10.5117 13 10.3591 13 10.2C13 10.0409 12.9377 9.88825 12.8269 9.77573C12.7161 9.66321 12.5658 9.6 12.4091 9.6Z" fill="black"/>
</svg>
