<svg width="47" height="52" viewBox="0 0 47 52" fill="none" xmlns="http://www.w3.org/2000/svg">
<path d="M12.7334 24.5998C12.0723 24.5998 11.5313 24.4892 11.1105 24.2678C10.6898 24.0398 10.3892 23.7246 10.2089 23.3222C10.0553 22.9868 9.97852 22.5811 9.97852 22.1049H10.8901C10.8901 22.467 10.9436 22.7756 11.0504 23.0304C11.1773 23.3054 11.381 23.5167 11.6615 23.6642C11.9487 23.8051 12.316 23.8755 12.7635 23.8755C13.1842 23.8755 13.5382 23.8084 13.8254 23.6743C14.1192 23.5401 14.3229 23.3523 14.4365 23.1109C14.5099 22.9566 14.5467 22.7823 14.5467 22.5878C14.5467 22.4134 14.5133 22.2491 14.4465 22.0948C14.3597 21.907 14.2194 21.7561 14.0257 21.6421C13.8321 21.5214 13.625 21.4308 13.4046 21.3705C13.1842 21.3034 12.8403 21.2128 12.3728 21.0988C11.8051 20.958 11.351 20.8004 11.0104 20.626C10.6697 20.4449 10.4293 20.1968 10.2891 19.8815C10.1889 19.6468 10.1388 19.402 10.1388 19.1471C10.1388 18.8654 10.1956 18.6005 10.3091 18.3524C10.4694 17.9902 10.7532 17.7051 11.1606 17.4972C11.5747 17.2826 12.0656 17.1753 12.6333 17.1753C13.2143 17.1753 13.6985 17.2826 14.0858 17.4972C14.4732 17.7051 14.757 18.0069 14.9374 18.4027C15.0776 18.7246 15.1477 19.1069 15.1477 19.5495H14.2762C14.2762 19.2008 14.2261 18.9124 14.1259 18.6843C14.0124 18.4228 13.8254 18.2249 13.5649 18.0908C13.3111 17.9499 12.9939 17.8795 12.6132 17.8795C12.2325 17.8795 11.9086 17.9466 11.6415 18.0807C11.381 18.2082 11.204 18.3859 11.1105 18.6139C11.0504 18.7414 11.0204 18.8923 11.0204 19.0666C11.0204 19.2477 11.0471 19.3953 11.1005 19.5093C11.1673 19.6703 11.2808 19.8044 11.4411 19.9117C11.6081 20.0123 11.7951 20.0961 12.0021 20.1632C12.2092 20.2236 12.4897 20.2974 12.8436 20.3845L13.1241 20.455C13.5182 20.5556 13.8488 20.6562 14.1159 20.7568C14.3897 20.8574 14.6302 20.9848 14.8372 21.1391C15.0442 21.2933 15.2012 21.4878 15.308 21.7226C15.4082 21.9439 15.4583 22.2088 15.4583 22.5173C15.4583 22.8393 15.3982 23.121 15.278 23.3624C15.1043 23.7581 14.7971 24.0633 14.3563 24.2779C13.9155 24.4925 13.3746 24.5998 12.7334 24.5998Z" fill="#0E0E0E"/>
<path d="M16.5102 17.3363H17.3517V24.4389H16.5102V17.3363Z" fill="#0E0E0E"/>
<path d="M18.6722 17.3363H19.5738L23.3606 23.1914V17.3363H24.1821V24.4389H23.2604L19.4937 18.5837V24.4389H18.6722V17.3363Z" fill="#0E0E0E"/>
<path d="M28.6064 24.5998C27.8717 24.5998 27.2573 24.4489 26.7631 24.1471C26.2689 23.8453 25.9016 23.4194 25.6611 22.8695C25.414 22.3329 25.2905 21.6723 25.2905 20.8876C25.2905 20.123 25.414 19.4623 25.6611 18.9057C25.9016 18.3557 26.2689 17.9298 26.7631 17.628C27.2573 17.3262 27.8717 17.1753 28.6064 17.1753C29.0672 17.1753 29.4846 17.2424 29.8586 17.3765C30.2393 17.5039 30.5665 17.6951 30.8404 17.9499C31.0942 18.178 31.2912 18.4563 31.4314 18.7849C31.5717 19.1069 31.6485 19.4623 31.6618 19.8513H30.7803C30.7402 19.2746 30.5432 18.8185 30.1892 18.4831C29.7818 18.1277 29.2442 17.9499 28.5763 17.9499C28.0487 17.9499 27.6079 18.0573 27.254 18.2719C26.9067 18.4865 26.6462 18.7883 26.4726 19.1773C26.2789 19.6334 26.1821 20.2035 26.1821 20.8876C26.1821 21.5784 26.2789 22.1485 26.4726 22.5978C26.6529 22.9935 26.9167 23.2987 27.264 23.5133C27.6179 23.7212 28.0554 23.8252 28.5763 23.8252C28.9236 23.8252 29.2342 23.7816 29.508 23.6944C29.7885 23.6005 30.0222 23.4664 30.2092 23.292C30.5832 22.9566 30.7803 22.4872 30.8003 21.8835H31.6819C31.6752 22.2927 31.5984 22.6615 31.4515 22.9902C31.3112 23.3188 31.1142 23.6005 30.8604 23.8352C30.5999 24.0834 30.276 24.2745 29.8887 24.4087C29.5013 24.5361 29.0739 24.5998 28.6064 24.5998Z" fill="#0E0E0E"/>
<path d="M32.7599 17.3363H36.9674V18.0807H33.6014V20.455H36.9373V21.1994H33.6014V23.6944H36.9674V24.4389H32.7599V17.3363Z" fill="#0E0E0E"/>
<path d="M13.3733 28.1612H12.061L12.2213 27.3966H14.1948V34.4992H13.3733V28.1612Z" fill="#0E0E0E"/>
<path d="M21.0408 28.7749C21.1611 29.0499 21.2512 29.3584 21.3113 29.7004C21.3781 30.0425 21.4115 30.4348 21.4115 30.8775C21.4115 31.7762 21.2813 32.5274 21.0208 33.131C20.8071 33.6206 20.4965 33.9962 20.0891 34.2578C19.6817 34.5193 19.1775 34.6501 18.5764 34.6501C18.1824 34.6501 17.8284 34.5931 17.5145 34.4791C17.2007 34.3651 16.9335 34.1974 16.7131 33.9761C16.3525 33.6139 16.1321 33.1444 16.0519 32.5676H16.8734C16.9469 32.9432 17.0971 33.245 17.3242 33.4731C17.6314 33.7816 18.0488 33.9358 18.5764 33.9358C18.9905 33.9358 19.3378 33.8419 19.6183 33.6541C19.9055 33.4596 20.1259 33.1847 20.2795 32.8292C20.4798 32.3731 20.58 31.7695 20.58 31.0183V30.8071C20.393 31.1759 20.1092 31.4677 19.7285 31.6823C19.3478 31.8902 18.8903 31.9942 18.3561 31.9942C17.8351 31.9942 17.3776 31.8835 16.9836 31.6622C16.5962 31.4409 16.3124 31.129 16.1321 30.7266C15.9918 30.4047 15.9217 30.0492 15.9217 29.6602C15.9217 29.2578 15.9952 28.8956 16.1421 28.5737C16.3358 28.1444 16.6397 27.8124 17.0537 27.5777C17.4745 27.3362 17.9687 27.2155 18.5364 27.2155C19.7318 27.2155 20.5667 27.7353 21.0408 28.7749ZM20.1793 30.3745C20.2795 30.1397 20.3296 29.8849 20.3296 29.6099C20.3296 29.3483 20.2795 29.1069 20.1793 28.8855C20.0591 28.5904 19.8554 28.3591 19.5682 28.1914C19.2877 28.0237 18.9471 27.9399 18.5464 27.9399C18.1524 27.9399 17.8184 28.0204 17.5446 28.1813C17.2708 28.3423 17.0704 28.5636 16.9435 28.8453C16.8367 29.0666 16.7832 29.3316 16.7832 29.6401C16.7832 29.9218 16.8333 30.18 16.9335 30.4147C17.0604 30.6964 17.2608 30.9144 17.5346 31.0686C17.8084 31.2229 18.139 31.3 18.5264 31.3C18.9404 31.3 19.2877 31.2195 19.5682 31.0586C19.8487 30.8909 20.0524 30.6629 20.1793 30.3745Z" fill="#0E0E0E"/>
<path d="M27.9497 28.7749C28.0699 29.0499 28.16 29.3584 28.2201 29.7004C28.2869 30.0425 28.3203 30.4348 28.3203 30.8775C28.3203 31.7762 28.1901 32.5274 27.9296 33.131C27.7159 33.6206 27.4054 33.9962 26.998 34.2578C26.5906 34.5193 26.0863 34.6501 25.4853 34.6501C25.0912 34.6501 24.7373 34.5931 24.4234 34.4791C24.1095 34.3651 23.8423 34.1974 23.6219 33.9761C23.2613 33.6139 23.0409 33.1444 22.9608 32.5676H23.7822C23.8557 32.9432 24.006 33.245 24.233 33.4731C24.5402 33.7816 24.9577 33.9358 25.4853 33.9358C25.8993 33.9358 26.2466 33.8419 26.5271 33.6541C26.8143 33.4596 27.0347 33.1847 27.1883 32.8292C27.3887 32.3731 27.4888 31.7695 27.4888 31.0183V30.8071C27.3018 31.1759 27.018 31.4677 26.6373 31.6823C26.2566 31.8902 25.7992 31.9942 25.2649 31.9942C24.7439 31.9942 24.2865 31.8835 23.8924 31.6622C23.5051 31.4409 23.2212 31.129 23.0409 30.7266C22.9006 30.4047 22.8305 30.0492 22.8305 29.6602C22.8305 29.2578 22.904 28.8956 23.0509 28.5737C23.2446 28.1444 23.5485 27.8124 23.9625 27.5777C24.3833 27.3362 24.8775 27.2155 25.4452 27.2155C26.6407 27.2155 27.4755 27.7353 27.9497 28.7749ZM27.0881 30.3745C27.1883 30.1397 27.2384 29.8849 27.2384 29.6099C27.2384 29.3483 27.1883 29.1069 27.0881 28.8855C26.9679 28.5904 26.7642 28.3591 26.477 28.1914C26.1965 28.0237 25.8559 27.9399 25.4552 27.9399C25.0612 27.9399 24.7272 28.0204 24.4534 28.1813C24.1796 28.3423 23.9792 28.5636 23.8523 28.8453C23.7455 29.0666 23.6921 29.3316 23.6921 29.6401C23.6921 29.9218 23.7421 30.18 23.8423 30.4147C23.9692 30.6964 24.1696 30.9144 24.4434 31.0686C24.7172 31.2229 25.0478 31.3 25.4352 31.3C25.8492 31.3 26.1965 31.2195 26.477 31.0586C26.7575 30.8909 26.9612 30.6629 27.0881 30.3745Z" fill="#0E0E0E"/>
<path d="M32.2338 34.6602C31.6594 34.6602 31.1786 34.5562 30.7912 34.3483C30.4105 34.1404 30.1334 33.8386 29.9597 33.4429C29.7994 33.0874 29.7193 32.6615 29.7193 32.1652H30.5408C30.5408 32.5408 30.5975 32.856 30.7111 33.1109C30.8313 33.3792 31.015 33.5837 31.2621 33.7246C31.5158 33.8587 31.8297 33.9258 32.2037 33.9258C32.5911 33.9258 32.9117 33.8554 33.1655 33.7145C33.4259 33.567 33.6196 33.359 33.7465 33.0908C33.8467 32.8493 33.8968 32.5911 33.8968 32.3161C33.8968 32.0076 33.8433 31.736 33.7365 31.5012C33.4493 30.8708 32.7781 30.5556 31.7229 30.5556C31.4424 30.5556 31.1519 30.579 30.8513 30.626C30.5508 30.6662 30.2669 30.7266 29.9998 30.8071L30.5708 27.3966H34.3776L34.2173 28.1411H31.242L30.9114 30.0224C31.3055 29.9285 31.6895 29.8815 32.0635 29.8815C32.6579 29.8815 33.1721 29.9922 33.6062 30.2135C34.0404 30.4348 34.3509 30.7635 34.5379 31.1994C34.6848 31.5214 34.7583 31.8902 34.7583 32.3061C34.7583 32.7286 34.6882 33.0975 34.5479 33.4127C34.3609 33.8151 34.0704 34.1236 33.6764 34.3383C33.2823 34.5529 32.8015 34.6602 32.2338 34.6602Z" fill="#0E0E0E"/>
<path d="M1 38.0861H46M46 13.9137H1M21.7469 7.06496C16.5745 7.54192 12.0039 10.1066 8.87955 13.9138H38.1205C34.9961 10.1066 30.4255 7.54192 25.2531 7.06496M37.9484 44.5192C39.1224 44.3854 40.4025 44.3811 41.103 43.6777C42.2052 42.5708 41.583 40.0219 42.4534 38.7163C42.6107 38.4802 42.8258 38.2743 43.0752 38.0863M43.0752 38.0863H3.925M43.0752 38.0863C42.8259 38.2743 42.6109 38.4802 42.4536 38.7162C41.5832 40.0219 42.2055 42.5707 41.1031 43.6776C40.0009 44.7846 37.4629 44.1597 36.1627 45.0337C34.8725 45.9012 34.4809 48.4982 33.0295 49.1027C31.6028 49.6968 29.4994 48.1447 27.9488 48.4527M3.925 38.0863C4.17424 38.2743 4.38922 38.4802 4.5466 38.7162C5.41695 40.0219 4.79465 42.5707 5.89701 43.6776C6.99928 44.7846 9.5373 44.1597 10.8374 45.0337C12.1276 45.9012 12.5192 48.4982 13.9707 49.1027C15.3973 49.6968 17.5007 48.1447 19.0513 48.4527M3.925 38.0863C4.17434 38.2743 4.38942 38.4802 4.5468 38.7163C5.41715 40.0219 4.79494 42.5708 5.8972 43.6777C6.59765 44.3811 7.87773 44.3854 9.05173 44.5192M19.0513 48.4527C20.5561 48.7516 21.9078 51 23.5 51C25.0922 51 26.4439 48.7516 27.9488 48.4527M19.0513 48.4527C20.5561 48.7516 21.9079 51 23.5002 51C25.0923 51 26.4439 48.7516 27.9488 48.4527M19.0513 48.4527C17.5008 48.1447 15.3976 49.6968 13.9709 49.1027C13.0416 48.7157 12.5467 47.5122 11.9722 46.4684M27.9488 48.4527C29.4993 48.1447 31.6025 49.6968 33.0293 49.1027C33.9585 48.7157 34.4535 47.5122 35.0279 46.4684M42.4534 13.2838C41.583 11.9781 42.2053 9.42934 41.1031 8.3224C40.0008 7.21537 37.4628 7.84031 36.1626 6.96627C34.8724 6.09887 34.4809 3.5018 33.0294 2.89728C31.6026 2.30321 29.4993 3.85532 27.9487 3.54727C26.4438 3.24838 25.0921 1 23.5 1C21.9079 1 20.556 3.24838 19.0513 3.54727C17.5007 3.85532 15.3974 2.30321 13.9708 2.89728C12.5192 3.5017 12.1276 6.09877 10.8375 6.96617C9.5374 7.84021 6.99928 7.21537 5.89702 8.3223C4.79475 9.42924 5.41696 11.978 4.54661 13.2837C4.38923 13.5198 4.17425 13.7257 3.9248 13.9137H43.0751C42.8258 13.7257 42.6107 13.5198 42.4534 13.2838ZM8.87955 38.0863C12.3526 42.3184 17.6125 45.0168 23.5 45.0168C29.3876 45.0168 34.6475 42.3184 38.1206 38.0863H8.87955ZM8.87955 13.9164C12.3526 9.68424 17.6125 6.98587 23.5 6.98587C29.3876 6.98587 34.6475 9.68424 38.1206 13.9164H8.87955Z" stroke="black" stroke-width="1.2" stroke-miterlimit="10" stroke-linecap="round" stroke-linejoin="round"/>
</svg>
