<svg width="23" height="23" viewBox="0 0 23 23" fill="none" xmlns="http://www.w3.org/2000/svg">
<g clip-path="url(#clip0_115_543)">
<path d="M11.7287 5.52637C10.9874 5.52625 10.2533 5.67217 9.56843 5.9558C8.88352 6.23943 8.26121 6.65522 7.73702 7.1794C7.21283 7.70359 6.79705 8.32591 6.51342 9.01081C6.22979 9.69572 6.08386 10.4298 6.08398 11.1711C6.08386 11.9124 6.22979 12.6465 6.51342 13.3314C6.79705 14.0163 7.21283 14.6386 7.73702 15.1628C8.26121 15.687 8.88352 16.1028 9.56843 16.3864C10.2533 16.67 10.9874 16.816 11.7287 16.8158C12.47 16.816 13.2041 16.67 13.889 16.3864C14.5739 16.1028 15.1962 15.687 15.7204 15.1628C16.2446 14.6386 16.6604 14.0163 16.944 13.3314C17.2277 12.6465 17.3736 11.9124 17.3735 11.1711C17.3736 10.4298 17.2277 9.69572 16.944 9.01081C16.6604 8.32591 16.2446 7.70359 15.7204 7.1794C15.1962 6.65522 14.5739 6.23943 13.889 5.9558C13.2041 5.67217 12.47 5.52625 11.7287 5.52637ZM11.7287 14.835C11.0043 14.8348 10.2963 14.6198 9.69405 14.2173C9.09182 13.8147 8.62247 13.2426 8.34535 12.5733C8.06822 11.9041 7.99576 11.1676 8.13713 10.4572C8.27849 9.74674 8.62733 9.09415 9.13955 8.58193C9.65176 8.06972 10.3044 7.72087 11.0148 7.57951C11.7253 7.43815 12.4617 7.51061 13.131 7.78773C13.8002 8.06486 14.3723 8.5342 14.7749 9.13643C15.1774 9.73865 15.3924 10.4467 15.3926 11.1711C15.3928 11.6523 15.2982 12.1289 15.1142 12.5735C14.9301 13.0181 14.6603 13.4221 14.32 13.7624C13.9797 14.1026 13.5757 14.3725 13.1311 14.5566C12.6865 14.7406 12.2099 14.8352 11.7287 14.835Z" fill="white"/>
<path d="M16.2602 0.244884C14.2362 0.150469 9.22309 0.155053 7.19729 0.244884C5.41715 0.3283 3.84693 0.758209 2.58104 2.0241C0.465406 4.13973 0.735818 6.99052 0.735818 11.1714C0.735818 15.4503 0.497488 18.2351 2.58104 20.3186C4.70491 22.4416 7.59695 22.1638 11.7283 22.1638C15.9669 22.1638 17.4299 22.1666 18.9286 21.5863C20.9663 20.7953 22.5044 18.9739 22.6548 15.7024C22.7501 13.6775 22.7446 8.66524 22.6548 6.63944C22.4733 2.77759 20.4007 0.435548 16.2602 0.244884ZM19.4639 18.9189C18.077 20.3058 16.153 20.182 11.7017 20.182C7.11846 20.182 5.28057 20.2499 3.93951 18.9051C2.39496 17.3679 2.67453 14.8994 2.67453 11.1567C2.67453 6.0922 2.15479 2.44485 7.23762 2.18452C8.40543 2.14327 8.74918 2.12952 11.6889 2.12952L11.7301 2.15702C16.615 2.15702 20.4475 1.64553 20.6776 6.72744C20.7298 7.887 20.7417 8.23533 20.7417 11.1704C20.7408 15.7005 20.827 17.5494 19.4639 18.9189Z" fill="white"/>
<path d="M17.5964 6.62152C18.3249 6.62152 18.9155 6.03095 18.9155 5.30246C18.9155 4.57396 18.3249 3.9834 17.5964 3.9834C16.8679 3.9834 16.2773 4.57396 16.2773 5.30246C16.2773 6.03095 16.8679 6.62152 17.5964 6.62152Z" fill="white"/>
</g>
<defs>
<clipPath id="clip0_115_543">
<rect width="22" height="22" fill="white" transform="translate(0.724609 0.175781)"/>
</clipPath>
</defs>
</svg>
