<svg width="23" height="23" viewBox="0 0 23 23" fill="none" xmlns="http://www.w3.org/2000/svg">
<g clip-path="url(#clip0_115_551)">
<path d="M3.75845 0.191895C2.1428 0.191895 0.827355 1.50708 0.826172 3.12401C0.826172 4.74093 2.14161 6.05637 3.75845 6.05637C5.3747 6.05637 6.68946 4.74093 6.68946 3.12401C6.68946 1.50725 5.37461 0.191895 3.75845 0.191895ZM5.95916 7.2345H1.5574C1.5076 7.2345 1.45828 7.24431 1.41226 7.26338C1.36625 7.28244 1.32444 7.31038 1.28923 7.3456C1.25401 7.38083 1.22608 7.42264 1.20703 7.46866C1.18797 7.51468 1.17817 7.564 1.17818 7.61381V21.7817C1.17818 21.8823 1.21814 21.9788 1.28925 22.0499C1.36037 22.121 1.45683 22.161 1.5574 22.161H5.95908C6.05965 22.1609 6.1561 22.121 6.22723 22.0499C6.29836 21.9788 6.33834 21.8823 6.33838 21.7817V7.61381C6.33841 7.56399 6.32863 7.51466 6.30958 7.46863C6.29054 7.42261 6.26261 7.38078 6.22739 7.34555C6.19217 7.31033 6.15035 7.28239 6.10433 7.26333C6.0583 7.24428 6.00897 7.23448 5.95916 7.2345ZM17.2121 7.06771C15.6012 7.06771 14.1856 7.55821 13.3218 8.35805V7.61381C13.3218 7.40426 13.152 7.2345 12.9425 7.2345H8.72017C8.67036 7.2345 8.62103 7.24431 8.57501 7.26338C8.52899 7.28244 8.48718 7.31038 8.45196 7.3456C8.41674 7.38082 8.3888 7.42263 8.36973 7.46865C8.35067 7.51467 8.34086 7.564 8.34086 7.61381V21.7817C8.34086 21.8316 8.35067 21.8809 8.36974 21.9269C8.3888 21.9729 8.41674 22.0147 8.45196 22.0499C8.48719 22.0851 8.529 22.1131 8.57502 22.1321C8.62104 22.1512 8.67036 22.161 8.72017 22.161H13.1177C13.2183 22.1609 13.3147 22.121 13.3859 22.0499C13.457 21.9788 13.497 21.8823 13.497 21.7817V14.7722C13.497 12.761 13.8669 11.5144 15.7131 11.5144C17.532 11.5166 17.6681 12.8533 17.6681 14.8923V21.7817C17.6681 21.8316 17.6779 21.8809 17.697 21.9269C17.7161 21.9729 17.744 22.0147 17.7792 22.0499C17.8145 22.0851 17.8563 22.1131 17.9023 22.1321C17.9483 22.1512 17.9977 22.161 18.0475 22.161H22.447C22.5476 22.1609 22.644 22.121 22.7152 22.0499C22.7863 21.9788 22.8262 21.8823 22.8263 21.7817V14.01C22.8262 10.7778 22.1881 7.06771 17.2121 7.06771Z" fill="white"/>
</g>
<defs>
<clipPath id="clip0_115_551">
<rect width="22" height="22" fill="white" transform="translate(0.824219 0.175781)"/>
</clipPath>
</defs>
</svg>
