<svg width="18" height="16" viewBox="0 0 18 16" fill="none" xmlns="http://www.w3.org/2000/svg">
<path d="M6.96789 16C10.8162 16 13.9358 12.9162 13.9358 9.11207C13.9358 5.30797 10.8162 2.22414 6.96789 2.22414C3.11963 2.22414 0 5.30797 0 9.11207C0 12.9162 3.11963 16 6.96789 16Z" fill="#C8D0DF"/>
<path d="M7.04668 14.4359L6.9583 14.2871C5.6083 12.0133 2.02086 7.18812 1.98462 7.13965L1.93287 7.07016L3.15509 5.87612L7.02399 8.54666C9.45995 5.42192 11.7325 3.27571 13.2149 2.0224C14.8365 0.651411 15.8921 0.0202518 15.9028 0.0142036L15.9268 0H18L17.802 0.174344C12.7087 4.65884 7.18816 14.1902 7.13317 14.2859L7.04668 14.4359Z" fill="#273969"/>
</svg>
