<svg width="13" height="17" viewBox="0 0 13 17" fill="none" xmlns="http://www.w3.org/2000/svg">
<path d="M6.5 0C2.91588 0 0 2.76191 0 6.15673C0 10.3698 5.81686 16.5549 6.06452 16.8161C6.29714 17.0615 6.70328 17.0611 6.93548 16.8161C7.18314 16.5549 13 10.3698 13 6.15673C12.9999 2.76191 10.0841 0 6.5 0ZM6.5 9.25435C4.69674 9.25435 3.22972 7.86477 3.22972 6.15673C3.22972 4.44869 4.69678 3.05914 6.5 3.05914C8.30322 3.05914 9.77024 4.44873 9.77024 6.15676C9.77024 7.8648 8.30322 9.25435 6.5 9.25435Z" fill="#E21F2B"/>
</svg>
