<svg width="17" height="13" viewBox="0 0 17 13" fill="none" xmlns="http://www.w3.org/2000/svg">
<path d="M15.2137 1H2.36963C1.61289 1 1 1.61912 1 2.375V10.625C1 11.3854 1.6174 12 2.36963 12H15.2137C15.9641 12 16.5833 11.388 16.5833 10.625V2.375C16.5833 1.62046 15.9729 1 15.2137 1ZM15.0219 1.91667L9.76015 7.17121C9.50144 7.43094 9.15751 7.57394 8.79167 7.57394C8.42582 7.57394 8.08189 7.43091 7.82233 7.17036L2.56144 1.91667H15.0219ZM1.91309 10.4384V2.56215L5.85877 6.50244L1.91309 10.4384ZM2.56202 11.0833L6.50615 7.14891L7.17754 7.81939C7.6087 8.25224 8.18194 8.4906 8.79167 8.4906C9.40139 8.4906 9.97463 8.25224 10.4049 7.82024L11.0772 7.14891L15.0213 11.0833H2.56202ZM15.6702 10.4384L11.7246 6.50244L15.6702 2.56215V10.4384Z" fill="black"/>
<path d="M15.2137 1H2.36963C1.61289 1 1 1.61912 1 2.375V10.625C1 11.3854 1.6174 12 2.36963 12H15.2137C15.9641 12 16.5833 11.388 16.5833 10.625V2.375C16.5833 1.62046 15.9729 1 15.2137 1ZM15.0219 1.91667L9.76015 7.17121C9.50144 7.43094 9.15751 7.57394 8.79167 7.57394C8.42582 7.57394 8.08189 7.43091 7.82233 7.17036L2.56144 1.91667H15.0219ZM1.91309 10.4384V2.56215L5.85877 6.50244L1.91309 10.4384ZM2.56202 11.0833L6.50615 7.14891L7.17754 7.81939C7.6087 8.25224 8.18194 8.4906 8.79167 8.4906C9.40139 8.4906 9.97463 8.25224 10.4049 7.82024L11.0772 7.14891L15.0213 11.0833H2.56202ZM15.6702 10.4384L11.7246 6.50244L15.6702 2.56215V10.4384Z" fill="#273969"/>
<path d="M15.2137 1H2.36963C1.61289 1 1 1.61912 1 2.375V10.625C1 11.3854 1.6174 12 2.36963 12H15.2137C15.9641 12 16.5833 11.388 16.5833 10.625V2.375C16.5833 1.62046 15.9729 1 15.2137 1ZM15.0219 1.91667L9.76015 7.17121C9.50144 7.43094 9.15751 7.57394 8.79167 7.57394C8.42582 7.57394 8.08189 7.43091 7.82233 7.17036L2.56144 1.91667H15.0219ZM1.91309 10.4384V2.56215L5.85877 6.50244L1.91309 10.4384ZM2.56202 11.0833L6.50615 7.14891L7.17754 7.81939C7.6087 8.25224 8.18194 8.4906 8.79167 8.4906C9.40139 8.4906 9.97463 8.25224 10.4049 7.82024L11.0772 7.14891L15.0213 11.0833H2.56202ZM15.6702 10.4384L11.7246 6.50244L15.6702 2.56215V10.4384Z" stroke="#D9D9D9" stroke-width="0.4"/>
</svg>
