<svg width="19" height="14" viewBox="0 0 19 14" fill="none" xmlns="http://www.w3.org/2000/svg">
<path d="M2.1338 8H18.0177C18.5602 8 19 7.55228 19 7C19 6.44772 18.5602 6 18.0177 6H2.1338C2.23039 5.73746 2.40899 5.44118 2.76192 5.01793C3.15535 4.54612 3.70512 3.98532 4.49457 3.18162L5.94292 1.70711C6.32652 1.31658 6.32652 0.683418 5.94292 0.292893C5.55933 -0.0976311 4.93739 -0.0976311 4.5538 0.292893L3.07572 1.79767C2.32298 2.56399 1.71577 3.18215 1.26429 3.72358C0.799417 4.28106 0.442151 4.82271 0.240378 5.45492C-0.0801241 6.45913 -0.0801241 7.54087 0.240378 8.54508C0.442151 9.17729 0.799417 9.71894 1.26429 10.2764C1.71578 10.8179 2.32294 11.436 3.07571 12.2023L4.5538 13.7071C4.93739 14.0976 5.55933 14.0976 5.94292 13.7071C6.32652 13.3166 6.32652 12.6834 5.94292 12.2929L4.49456 10.8184C3.70512 10.0147 3.15535 9.45388 2.76192 8.98207C2.40899 8.55882 2.23039 8.26254 2.1338 8Z" fill="#323232"/>
</svg>
