<svg width="13" height="13" viewBox="0 0 13 13" fill="none" xmlns="http://www.w3.org/2000/svg">
<path d="M3.01506 8.47679C4.20313 9.89163 5.63332 11.0056 7.26567 11.7938C7.88717 12.0872 8.71832 12.4353 9.64432 12.495C9.70173 12.4975 9.75664 12.5 9.81405 12.5C10.4355 12.5 10.9347 12.2862 11.3416 11.846C11.3441 11.8436 11.3491 11.8386 11.3516 11.8336C11.4963 11.6596 11.6611 11.5029 11.8333 11.3363C11.9506 11.2244 12.0704 11.1075 12.1852 10.9882C12.7168 10.4362 12.7168 9.73498 12.1802 9.20037L10.6801 7.70597C10.4256 7.44239 10.121 7.30315 9.80157 7.30315C9.48208 7.30315 9.17508 7.4424 8.91301 7.70348L8.01945 8.59366C7.93709 8.54642 7.85222 8.50414 7.77235 8.46436C7.67251 8.41463 7.58016 8.36738 7.4978 8.31517C6.68412 7.80046 5.94531 7.12909 5.23896 6.26627C4.88203 5.8162 4.64242 5.43825 4.47519 5.05284C4.70981 4.84148 4.92946 4.62018 5.14161 4.40385C5.21649 4.32677 5.29387 4.24969 5.37124 4.17261C5.64081 3.90406 5.78557 3.59324 5.78557 3.27746C5.78557 2.96167 5.6433 2.65085 5.37124 2.3823L4.62745 1.64132C4.54009 1.55429 4.45772 1.46975 4.37286 1.38272C4.20813 1.21363 4.03591 1.03958 3.86618 0.882926C3.6091 0.631786 3.30709 0.5 2.9876 0.5C2.67062 0.5 2.36611 0.631786 2.09904 0.885412L1.16555 1.81538C0.826105 2.15354 0.633916 2.56382 0.59398 3.03875C0.546557 3.63303 0.656379 4.26461 0.940919 5.02797C1.37771 6.20908 2.03664 7.30564 3.01506 8.47679ZM1.20299 3.09097C1.23295 2.76026 1.36024 2.48425 1.59985 2.24554L2.52835 1.32056C2.67311 1.18131 2.83285 1.1092 2.9876 1.1092C3.13986 1.1092 3.29461 1.18131 3.43688 1.32553C3.6041 1.47969 3.76135 1.64132 3.93108 1.81289C4.01594 1.89992 4.1033 1.98695 4.19065 2.07646L4.93445 2.81745C5.0892 2.97161 5.16907 3.12826 5.16907 3.28243C5.16907 3.43659 5.0892 3.59325 4.93445 3.74741C4.85708 3.82449 4.7797 3.90406 4.70233 3.98114C4.4702 4.21488 4.25305 4.43618 4.01344 4.64753L4.00096 4.65997C3.7938 4.86635 3.82625 5.06278 3.87616 5.21198C3.87866 5.21944 3.88116 5.22441 3.88365 5.23187C4.07584 5.69188 4.34291 6.12951 4.75973 6.65168C5.50852 7.57169 6.29724 8.28533 7.16584 8.83485C7.27316 8.90448 7.38798 8.95918 7.4953 9.01388C7.59514 9.06361 7.68749 9.11086 7.76986 9.16307C7.77984 9.16805 7.78733 9.17302 7.79731 9.17799C7.87968 9.22027 7.95955 9.24016 8.03942 9.24016C8.2391 9.24016 8.36889 9.11334 8.41132 9.07107L9.34481 8.14111C9.48957 7.99689 9.64682 7.91981 9.80157 7.91981C9.99126 7.91981 10.146 8.03668 10.2434 8.14111L11.7484 9.638C12.0479 9.93639 12.0454 10.2596 11.7409 10.5754C11.6361 10.6873 11.5263 10.7942 11.409 10.9061C11.2342 11.0752 11.052 11.2493 10.8873 11.4457C10.6003 11.754 10.2583 11.8983 9.81654 11.8983C9.77411 11.8983 9.72918 11.8958 9.68675 11.8933C8.86808 11.8411 8.10681 11.5228 7.53524 11.2518C5.98275 10.5033 4.61996 9.44157 3.48929 8.09387C2.5583 6.97741 1.93181 5.93804 1.51748 4.82408C1.2604 4.14028 1.16306 3.59076 1.20299 3.09097Z" fill="black"/>
<path d="M3.01506 8.47679C4.20313 9.89163 5.63332 11.0056 7.26567 11.7938C7.88717 12.0872 8.71832 12.4353 9.64432 12.495C9.70173 12.4975 9.75664 12.5 9.81405 12.5C10.4355 12.5 10.9347 12.2862 11.3416 11.846C11.3441 11.8436 11.3491 11.8386 11.3516 11.8336C11.4963 11.6596 11.6611 11.5029 11.8333 11.3363C11.9506 11.2244 12.0704 11.1075 12.1852 10.9882C12.7168 10.4362 12.7168 9.73498 12.1802 9.20037L10.6801 7.70597C10.4256 7.44239 10.121 7.30315 9.80157 7.30315C9.48208 7.30315 9.17508 7.4424 8.91301 7.70348L8.01945 8.59366C7.93709 8.54642 7.85222 8.50414 7.77235 8.46436C7.67251 8.41463 7.58016 8.36738 7.4978 8.31517C6.68412 7.80046 5.94531 7.12909 5.23896 6.26627C4.88203 5.8162 4.64242 5.43825 4.47519 5.05284C4.70981 4.84148 4.92946 4.62018 5.14161 4.40385C5.21649 4.32677 5.29387 4.24969 5.37124 4.17261C5.64081 3.90406 5.78557 3.59324 5.78557 3.27746C5.78557 2.96167 5.6433 2.65085 5.37124 2.3823L4.62745 1.64132C4.54009 1.55429 4.45772 1.46975 4.37286 1.38272C4.20813 1.21363 4.03591 1.03958 3.86618 0.882926C3.6091 0.631786 3.30709 0.5 2.9876 0.5C2.67062 0.5 2.36611 0.631786 2.09904 0.885412L1.16555 1.81538C0.826105 2.15354 0.633916 2.56382 0.59398 3.03875C0.546557 3.63303 0.656379 4.26461 0.940919 5.02797C1.37771 6.20908 2.03664 7.30564 3.01506 8.47679ZM1.20299 3.09097C1.23295 2.76026 1.36024 2.48425 1.59985 2.24554L2.52835 1.32056C2.67311 1.18131 2.83285 1.1092 2.9876 1.1092C3.13986 1.1092 3.29461 1.18131 3.43688 1.32553C3.6041 1.47969 3.76135 1.64132 3.93108 1.81289C4.01594 1.89992 4.1033 1.98695 4.19065 2.07646L4.93445 2.81745C5.0892 2.97161 5.16907 3.12826 5.16907 3.28243C5.16907 3.43659 5.0892 3.59325 4.93445 3.74741C4.85708 3.82449 4.7797 3.90406 4.70233 3.98114C4.4702 4.21488 4.25305 4.43618 4.01344 4.64753L4.00096 4.65997C3.7938 4.86635 3.82625 5.06278 3.87616 5.21198C3.87866 5.21944 3.88116 5.22441 3.88365 5.23187C4.07584 5.69188 4.34291 6.12951 4.75973 6.65168C5.50852 7.57169 6.29724 8.28533 7.16584 8.83485C7.27316 8.90448 7.38798 8.95918 7.4953 9.01388C7.59514 9.06361 7.68749 9.11086 7.76986 9.16307C7.77984 9.16805 7.78733 9.17302 7.79731 9.17799C7.87968 9.22027 7.95955 9.24016 8.03942 9.24016C8.2391 9.24016 8.36889 9.11334 8.41132 9.07107L9.34481 8.14111C9.48957 7.99689 9.64682 7.91981 9.80157 7.91981C9.99126 7.91981 10.146 8.03668 10.2434 8.14111L11.7484 9.638C12.0479 9.93639 12.0454 10.2596 11.7409 10.5754C11.6361 10.6873 11.5263 10.7942 11.409 10.9061C11.2342 11.0752 11.052 11.2493 10.8873 11.4457C10.6003 11.754 10.2583 11.8983 9.81654 11.8983C9.77411 11.8983 9.72918 11.8958 9.68675 11.8933C8.86808 11.8411 8.10681 11.5228 7.53524 11.2518C5.98275 10.5033 4.61996 9.44157 3.48929 8.09387C2.5583 6.97741 1.93181 5.93804 1.51748 4.82408C1.2604 4.14028 1.16306 3.59076 1.20299 3.09097Z" fill="#273969"/>
</svg>
