<svg width="23" height="23" viewBox="0 0 23 23" fill="none" xmlns="http://www.w3.org/2000/svg">
<rect x="0.820168" y="0.319192" width="21.5237" height="21.5237" rx="10.7619" stroke="black" stroke-opacity="0.33" stroke-width="0.476274"/>
<path d="M18.6003 7.65753C18.4395 7.03204 17.9533 6.53498 17.3316 6.3601C16.196 6.03573 11.6395 5.98494 11.6395 5.98494C11.6395 5.98494 7.08315 5.93415 5.9407 6.22132C5.3273 6.38224 4.81802 6.88031 4.64333 7.50195C4.33085 8.63762 4.30452 10.9998 4.30452 10.9998C4.30452 10.9998 4.27806 13.3739 4.56527 14.5043C4.72622 15.1297 5.21225 15.6268 5.834 15.8017C6.98152 16.1263 11.526 16.1769 11.526 16.1769C11.526 16.1769 16.0824 16.2277 17.2248 15.9406C17.8503 15.7797 18.3474 15.2936 18.5223 14.6719C18.8346 13.5361 18.861 11.1741 18.861 11.1741C18.861 11.1741 18.8994 8.8 18.6003 7.65753ZM10.1076 13.247L10.1563 8.88247L13.9209 11.107L10.1076 13.247Z" fill="black"/>
</svg>
