<svg width="34" height="34" viewBox="0 0 34 34" fill="none" xmlns="http://www.w3.org/2000/svg">
<path d="M2.74189 30.6883H17V29.5881H2.74189C1.83334 29.5881 1.09673 28.8494 1.09673 27.9381V3.73822C1.09673 2.82673 1.83334 2.08823 2.74189 2.08823H26.8709C27.7799 2.08823 28.5161 2.82673 28.5161 3.73822V16.3881H29.6131V3.73822C29.6113 2.22015 28.3847 0.990081 26.8709 0.988281H2.74189C1.22854 0.990046 0.00193532 2.22015 0 3.73822V27.9381C0.00193532 29.4562 1.22854 30.6863 2.74189 30.6883Z" fill="#273969"/>
<path d="M2.19373 3.18846H3.29032V4.28827H2.19373V3.18846ZM4.38705 3.18846H5.48405V4.28827H4.38705V3.18846ZM6.58064 3.18846H7.67751V4.28827H6.58064V3.18846ZM2.19373 5.38818H27.4194V6.48845H2.19373V5.38818ZM7.83817 7.74939L6.44524 9.14641C5.26783 8.36465 3.69111 8.60449 2.79755 9.70129C1.90414 10.7979 1.98426 12.3954 2.98271 13.3966C3.98098 14.3983 5.57392 14.4786 6.66748 13.5824C7.76094 12.6864 8.00021 11.1048 7.22063 9.92419L8.61339 8.52717L7.83817 7.74939ZM4.93534 13.0881C4.0269 13.0881 3.29032 12.3495 3.29032 11.4382C3.29032 10.5269 4.0269 9.78839 4.93534 9.78839C5.17968 9.78914 5.42068 9.84547 5.64018 9.95313L4.54785 11.0488L5.32307 11.8267L6.41624 10.7316C6.52363 10.9517 6.57984 11.1933 6.58064 11.4383C6.58064 12.3495 5.8443 13.0881 4.93534 13.0881ZM9.32263 9.78839H18.645V10.8882H9.32263V9.78839ZM9.32263 11.9883H13.1612V13.0881H9.32263V11.9883ZM14.2581 11.9883H21.9353V13.0881H14.2581V11.9883ZM19.7419 9.78839H25.2258V10.8882H19.7419V9.78839ZM7.83817 14.3494L6.44524 15.7464C5.26783 14.9646 3.69111 15.2045 2.79755 16.3012C1.90414 17.398 1.98426 18.9953 2.98271 19.9969C3.98098 20.9982 5.57392 21.0786 6.66748 20.1824C7.76094 19.2862 8.00021 17.7051 7.22063 16.5242L8.61339 15.1271L7.83817 14.3494ZM4.93534 19.6882C4.0269 19.6882 3.29032 18.9494 3.29032 18.0382C3.29032 17.1269 4.0269 16.3881 4.93534 16.3881C5.1797 16.389 5.42067 16.4454 5.64018 16.5531L4.54785 17.6491L5.32307 18.4265L6.41624 17.3314C6.52362 17.5515 6.57982 17.7932 6.58064 18.0382C6.58064 18.9494 5.8443 19.6882 4.93534 19.6882ZM9.32263 16.3881H18.645V17.4882H9.32263V16.3881ZM9.32263 18.5882H13.1612V19.6882H9.32263V18.5882ZM14.2581 18.5882H18.645V19.6882H14.2581V18.5882ZM19.7419 16.3881H21.9353V17.4882H19.7419V16.3881ZM7.83817 20.9493L6.44524 22.3463C5.26783 21.5645 3.69111 21.8044 2.79755 22.9012C1.90414 23.998 1.98426 25.5953 2.98271 26.5968C3.98098 27.5983 5.57392 27.6784 6.66748 26.7823C7.76094 25.8862 8.00021 24.305 7.22063 23.1239L8.61339 21.7271L7.83817 20.9493ZM4.93534 26.2882C4.0269 26.2882 3.29032 25.5494 3.29032 24.6382C3.29032 23.7268 4.0269 22.9882 4.93534 22.9882C5.1797 22.9889 5.42071 23.0453 5.64018 23.1531L4.54785 24.249L5.32307 25.0265L6.41624 23.9314C6.52361 24.1515 6.57981 24.3931 6.58064 24.6382C6.58064 25.5494 5.8443 26.2882 4.93534 26.2882ZM9.32263 22.9882H16.4516V24.0884H9.32263V22.9882ZM9.32263 25.1882H13.1612V26.2882H9.32263V25.1882ZM14.2581 25.1882H16.4516V26.2882H14.2581V25.1882ZM25.7743 33.9883C30.3175 33.9883 34 30.2944 34 25.7382C34 21.1817 30.3175 17.4882 25.7743 17.4882C21.2312 17.4882 17.5484 21.1817 17.5484 25.7383C17.5538 30.2923 21.2334 33.9828 25.7743 33.9883ZM25.7743 18.5882C29.7114 18.5882 32.9034 21.7894 32.9034 25.7382C32.9034 29.6871 29.7114 32.8881 25.7743 32.8881C21.8369 32.8881 18.645 29.6871 18.645 25.7383C18.6497 21.7913 21.8387 18.5927 25.7743 18.5882Z" fill="#273969"/>
<path d="M22.4292 26.0422L21.4475 26.5338L22.5444 28.7338C22.5832 28.8119 22.64 28.8795 22.71 28.9312C22.7801 28.9829 22.8614 29.0171 22.9473 29.031C22.9756 29.0355 23.0039 29.0378 23.0323 29.0382C23.1776 29.0382 23.3171 28.9802 23.4202 28.8771L30.0006 22.2771L29.2254 21.4993L23.1824 27.5597L22.4292 26.0422Z" fill="#273969"/>
</svg>
