<svg width="23" height="23" viewBox="0 0 23 23" fill="none" xmlns="http://www.w3.org/2000/svg">
<rect x="0.52228" y="0.378726" width="21.4047" height="21.4047" rx="10.7023" stroke="black" stroke-opacity="0.33" stroke-width="0.595342"/>
<path d="M13.37 11.683L12.1556 12.9015C11.6631 13.3957 10.7967 13.4064 10.2935 12.9015L9.07909 11.683L4.71731 16.059C4.87967 16.1341 5.05868 16.1789 5.24899 16.1789H17.2002C17.3905 16.1789 17.5694 16.1341 17.7317 16.059L13.37 11.683Z" fill="black"/>
<path d="M17.2002 5.9834H5.24902C5.05871 5.9834 4.8797 6.0282 4.71739 6.10328L9.37827 10.7796L9.37926 10.7803L9.37963 10.781L10.8951 12.3015C11.0561 12.4625 11.3932 12.4625 11.5541 12.3015L13.0693 10.7813L13.07 10.7803L13.071 10.7796L17.7318 6.10325C17.5695 6.02814 17.3905 5.9834 17.2002 5.9834ZM4.11015 6.69741C4.02615 6.86728 3.97461 7.05583 3.97461 7.25781V14.9043C3.97461 15.1063 4.0261 15.2948 4.11012 15.4647L8.47946 11.0812L4.11015 6.69741ZM18.3391 6.69735L13.9698 11.0812L18.3391 15.4648C18.4231 15.2949 18.4746 15.1063 18.4746 14.9043V7.25781C18.4746 7.05578 18.4231 6.86722 18.3391 6.69735Z" fill="black"/>
</svg>
