<svg width="23" height="23" viewBox="0 0 23 23" fill="none" xmlns="http://www.w3.org/2000/svg">
<rect x="0.805484" y="0.378726" width="21.4047" height="21.4047" rx="10.7023" stroke="black" stroke-opacity="0.33" stroke-width="0.595342"/>
<path d="M14.6055 5.0535L8.54428 4.98593C6.87759 4.96735 5.49847 6.31607 5.47989 7.98275L5.41232 14.0443C5.39374 15.7105 6.74246 17.0901 8.40914 17.1087L14.4704 17.1762C16.137 17.1948 17.5162 15.8456 17.5347 14.1794L17.6023 8.11789C17.6209 6.4512 16.2722 5.07208 14.6055 5.0535ZM16.5245 14.1681C16.5121 15.2819 15.596 16.1784 14.4816 16.166L8.4204 16.0984C7.30651 16.086 6.41015 15.1693 6.42257 14.0555L6.49014 7.99402C6.50256 6.87997 7.41912 5.98377 8.53302 5.99618L14.5942 6.06375C15.7086 6.07617 16.6045 6.99258 16.5921 8.10663L16.5245 14.1681Z" fill="black"/>
<path d="M14.8208 8.59211C15.2393 8.59677 15.5823 8.26134 15.5869 7.8429C15.5916 7.42446 15.2562 7.08147 14.8377 7.07681C14.4193 7.07214 14.0763 7.40757 14.0716 7.82601C14.067 8.24445 14.4024 8.58744 14.8208 8.59211Z" fill="black"/>
<path d="M11.5404 8.05087C9.86626 8.03221 8.49464 9.37373 8.47598 11.0477C8.45733 12.721 9.79869 14.0937 11.4728 14.1124C13.1464 14.131 14.5185 12.7886 14.5372 11.1153C14.5559 9.4413 13.214 8.06953 11.5404 8.05087ZM11.4841 13.1021C10.3683 13.0897 9.47379 12.175 9.48623 11.059C9.49867 9.94293 10.4134 9.04869 11.5291 9.06112C12.6448 9.07356 13.5394 9.98797 13.5269 11.104C13.5145 12.22 12.5998 13.1146 11.4841 13.1021Z" fill="black"/>
</svg>
