<svg width="23" height="23" viewBox="0 0 23 23" fill="none" xmlns="http://www.w3.org/2000/svg">
<rect x="1.16291" y="0.378726" width="21.4047" height="21.4047" rx="10.7023" stroke="black" stroke-opacity="0.33" stroke-width="0.595342"/>
<path d="M10.4085 11.8464L8.9064 11.8297C8.66365 11.827 8.5888 11.7351 8.59134 11.5075L8.6118 9.67166C8.61451 9.4289 8.70639 9.35405 8.93397 9.35659L10.436 9.37334L10.4509 8.03817C10.4577 7.43127 10.5703 6.85591 10.8797 6.32826C11.2044 5.7856 11.6636 5.42654 12.2425 5.22055C12.6234 5.08823 13.0034 5.03177 13.413 5.03634L14.8999 5.05291C15.1123 5.05528 15.2023 5.14733 15.2 5.35974L15.1807 7.08939C15.1783 7.3018 15.0863 7.39182 14.8739 7.38946C14.4642 7.38489 14.0546 7.38032 13.6447 7.39093C13.2351 7.38636 13.0205 7.58123 13.0157 8.00606C12.9955 8.46106 13.0057 8.90123 13.0005 9.37157L14.7605 9.39119C15.0033 9.3939 15.0933 9.48595 15.0906 9.72871L15.0701 11.5646C15.0674 11.8073 14.9907 11.8823 14.7328 11.8795L12.9728 11.8598L12.9176 16.806C12.9148 17.064 12.8379 17.1542 12.5648 17.1511L10.6682 17.13C10.4406 17.1274 10.3506 17.0354 10.3532 16.8078L10.4085 11.8464Z" fill="black"/>
</svg>
