<svg width="31" height="31" viewBox="0 0 31 31" fill="none" xmlns="http://www.w3.org/2000/svg">
<rect x="1.2846" y="0.541439" width="29.3605" height="29.3605" rx="14.6802" stroke="black" stroke-opacity="0.33" stroke-width="0.639518"/>
<path d="M23.4648 22.7217V17.2279C23.4648 14.5279 22.8836 12.4654 19.7336 12.4654C18.2148 12.4654 17.2023 13.2904 16.7898 14.0779H16.7523V12.7092H13.7711V22.7217H16.8836V17.7529C16.8836 16.4404 17.1273 15.1842 18.7398 15.1842C20.3336 15.1842 20.3523 16.6654 20.3523 17.8279V22.7029H23.4648V22.7217ZM8.70859 12.7092H11.8211V22.7217H8.70859V12.7092ZM10.2648 7.72168C9.27109 7.72168 8.46484 8.52793 8.46484 9.52168C8.46484 10.5154 9.27109 11.3404 10.2648 11.3404C11.2586 11.3404 12.0648 10.5154 12.0648 9.52168C12.0648 8.52793 11.2586 7.72168 10.2648 7.72168Z" fill="black"/>
</svg>
