<svg width="18" height="17" viewBox="0 0 18 17" fill="none" xmlns="http://www.w3.org/2000/svg">
<path d="M16.7961 5.442H10.7705V1.2791C10.7705 0.573787 10.2305 0 9.56668 0H1.20386C0.540035 0 0 0.573787 0 1.2791V7.71656C0 8.42187 0.540035 8.99566 1.20386 8.99566H2.18668C2.15652 9.72301 1.99944 10.3888 1.70982 11.0213C1.68009 11.0862 1.66871 11.1589 1.67706 11.2306C1.68541 11.3023 1.71312 11.3698 1.75686 11.4251C1.80059 11.4804 1.85846 11.521 1.92347 11.542C1.98848 11.5631 2.05784 11.5637 2.12316 11.5437C3.59156 11.0949 4.48077 10.5888 5.43677 8.99566H7.22946V13.1586C7.22946 13.8639 7.76907 14.4377 8.4323 14.4377H12.5632C13.5192 16.0308 14.4084 16.5368 15.8768 16.9857C15.9422 17.0056 16.0115 17.005 16.0765 16.984C16.1415 16.9629 16.1994 16.9223 16.2431 16.867C16.2869 16.8118 16.3146 16.7442 16.3229 16.6726C16.3313 16.6009 16.3199 16.5282 16.2902 16.4633C16.0006 15.8308 15.8435 15.165 15.8134 14.4377H16.7961C17.46 14.4377 18 13.8639 18 13.1586V6.72109C18 6.01578 17.46 5.442 16.7961 5.442ZM5.24173 8.24859C5.18147 8.24859 5.12223 8.26504 5.06968 8.29637C5.01714 8.32771 4.97306 8.37286 4.94167 8.42751C4.22318 9.678 3.58492 10.2051 2.62993 10.5844C2.8164 9.96383 2.90514 9.30469 2.89431 8.61592C2.89277 8.51795 2.85505 8.42454 2.7893 8.35583C2.72354 8.28712 2.63501 8.24862 2.54278 8.24863H1.20386C0.927738 8.24863 0.703125 8.00994 0.703125 7.7166V1.2791C0.703125 0.985722 0.927773 0.74707 1.20386 0.74707H9.56668C9.8428 0.74707 10.0674 0.985759 10.0674 1.2791V7.71656C10.0674 8.00994 9.84277 8.24859 9.56668 8.24859H5.24173ZM17.2969 13.1586C17.2969 13.4519 17.0722 13.6906 16.7961 13.6906H15.4573C15.2654 13.6906 15.109 13.854 15.1057 14.0579C15.0949 14.7467 15.1836 15.4058 15.3701 16.0264C14.4152 15.6471 13.7769 15.12 13.0584 13.8695C13.027 13.8149 12.9829 13.7697 12.9303 13.7384C12.8778 13.707 12.8186 13.6906 12.7583 13.6906H8.43233C8.15678 13.6906 7.93262 13.4519 7.93262 13.1586V8.99566H9.56672C10.2305 8.99566 10.7706 8.42187 10.7706 7.71656V6.18907H16.7962C17.0723 6.18907 17.2969 6.42776 17.2969 6.72109V13.1586H17.2969Z" fill="#595959"/>
<path d="M16.7961 5.442H10.7705V1.2791C10.7705 0.573787 10.2305 0 9.56668 0H1.20386C0.540035 0 0 0.573787 0 1.2791V7.71656C0 8.42187 0.540035 8.99566 1.20386 8.99566H2.18668C2.15652 9.72301 1.99944 10.3888 1.70982 11.0213C1.68009 11.0862 1.66871 11.1589 1.67706 11.2306C1.68541 11.3023 1.71312 11.3698 1.75686 11.4251C1.80059 11.4804 1.85846 11.521 1.92347 11.542C1.98848 11.5631 2.05784 11.5637 2.12316 11.5437C3.59156 11.0949 4.48077 10.5888 5.43677 8.99566H7.22946V13.1586C7.22946 13.8639 7.76907 14.4377 8.4323 14.4377H12.5632C13.5192 16.0308 14.4084 16.5368 15.8768 16.9857C15.9422 17.0056 16.0115 17.005 16.0765 16.984C16.1415 16.9629 16.1994 16.9223 16.2431 16.867C16.2869 16.8118 16.3146 16.7442 16.3229 16.6726C16.3313 16.6009 16.3199 16.5282 16.2902 16.4633C16.0006 15.8308 15.8435 15.165 15.8134 14.4377H16.7961C17.46 14.4377 18 13.8639 18 13.1586V6.72109C18 6.01578 17.46 5.442 16.7961 5.442ZM5.24173 8.24859C5.18147 8.24859 5.12223 8.26504 5.06968 8.29637C5.01714 8.32771 4.97306 8.37286 4.94167 8.42751C4.22318 9.678 3.58492 10.2051 2.62993 10.5844C2.8164 9.96383 2.90514 9.30469 2.89431 8.61592C2.89277 8.51795 2.85505 8.42454 2.7893 8.35583C2.72354 8.28712 2.63501 8.24862 2.54278 8.24863H1.20386C0.927738 8.24863 0.703125 8.00994 0.703125 7.7166V1.2791C0.703125 0.985722 0.927773 0.74707 1.20386 0.74707H9.56668C9.8428 0.74707 10.0674 0.985759 10.0674 1.2791V7.71656C10.0674 8.00994 9.84277 8.24859 9.56668 8.24859H5.24173ZM17.2969 13.1586C17.2969 13.4519 17.0722 13.6906 16.7961 13.6906H15.4573C15.2654 13.6906 15.109 13.854 15.1057 14.0579C15.0949 14.7467 15.1836 15.4058 15.3701 16.0264C14.4152 15.6471 13.7769 15.12 13.0584 13.8695C13.027 13.8149 12.9829 13.7697 12.9303 13.7384C12.8778 13.707 12.8186 13.6906 12.7583 13.6906H8.43233C8.15678 13.6906 7.93262 13.4519 7.93262 13.1586V8.99566H9.56672C10.2305 8.99566 10.7706 8.42187 10.7706 7.71656V6.18907H16.7962C17.0723 6.18907 17.2969 6.42776 17.2969 6.72109V13.1586H17.2969Z" fill="#1369F1"/>
<path d="M7.58605 5.99826L7.2423 5.63301C7.51353 5.23236 7.67395 4.74161 7.67395 4.21149C7.67395 2.86579 6.64352 1.771 5.37701 1.771C4.11051 1.771 3.08008 2.86583 3.08008 4.21149C3.08008 5.55715 4.11051 6.65198 5.37701 6.65198C5.89145 6.65198 6.36691 6.47134 6.75021 6.16668L7.08891 6.52655C7.15757 6.5995 7.24753 6.63595 7.3375 6.63595C7.42746 6.63595 7.51746 6.59946 7.58609 6.52655C7.72337 6.38064 7.72337 6.14412 7.58605 5.99826ZM5.37698 5.90491C4.49814 5.90491 3.78317 5.14525 3.78317 4.21149C3.78317 3.27772 4.49814 2.51807 5.37698 2.51807C6.25581 2.51807 6.97078 3.27772 6.97078 4.21149C6.97111 4.52345 6.88981 4.82937 6.73598 5.09509L6.34082 4.67523C6.20354 4.52937 5.98093 4.52937 5.84364 4.67523C5.70636 4.8211 5.70636 5.05762 5.84364 5.20349L6.24537 5.63032C5.98726 5.80977 5.68543 5.9052 5.37698 5.90491ZM13.0311 7.80366C12.9993 7.71543 12.943 7.63953 12.8697 7.58604C12.7964 7.53255 12.7096 7.50398 12.6206 7.50413H12.6205C12.5318 7.50397 12.4451 7.53241 12.3718 7.58569C12.2986 7.63898 12.2423 7.7146 12.2104 7.80258L10.7526 11.8702C10.6835 12.0629 10.7746 12.2787 10.9561 12.3522C10.996 12.3684 11.0384 12.3767 11.0811 12.3767C11.2228 12.3767 11.3563 12.2851 11.4098 12.136L11.6868 11.363H13.5429L13.8169 12.1349C13.8854 12.3279 14.0881 12.4255 14.2699 12.3526C14.4516 12.2798 14.5433 12.0644 14.4748 11.8713L13.0311 7.80366ZM11.9545 10.6158L12.6193 8.76077L13.2777 10.6158H11.9545Z" fill="#595959"/>
<path d="M7.58605 5.99826L7.2423 5.63301C7.51353 5.23236 7.67395 4.74161 7.67395 4.21149C7.67395 2.86579 6.64352 1.771 5.37701 1.771C4.11051 1.771 3.08008 2.86583 3.08008 4.21149C3.08008 5.55715 4.11051 6.65198 5.37701 6.65198C5.89145 6.65198 6.36691 6.47134 6.75021 6.16668L7.08891 6.52655C7.15757 6.5995 7.24753 6.63595 7.3375 6.63595C7.42746 6.63595 7.51746 6.59946 7.58609 6.52655C7.72337 6.38064 7.72337 6.14412 7.58605 5.99826ZM5.37698 5.90491C4.49814 5.90491 3.78317 5.14525 3.78317 4.21149C3.78317 3.27772 4.49814 2.51807 5.37698 2.51807C6.25581 2.51807 6.97078 3.27772 6.97078 4.21149C6.97111 4.52345 6.88981 4.82937 6.73598 5.09509L6.34082 4.67523C6.20354 4.52937 5.98093 4.52937 5.84364 4.67523C5.70636 4.8211 5.70636 5.05762 5.84364 5.20349L6.24537 5.63032C5.98726 5.80977 5.68543 5.9052 5.37698 5.90491ZM13.0311 7.80366C12.9993 7.71543 12.943 7.63953 12.8697 7.58604C12.7964 7.53255 12.7096 7.50398 12.6206 7.50413H12.6205C12.5318 7.50397 12.4451 7.53241 12.3718 7.58569C12.2986 7.63898 12.2423 7.7146 12.2104 7.80258L10.7526 11.8702C10.6835 12.0629 10.7746 12.2787 10.9561 12.3522C10.996 12.3684 11.0384 12.3767 11.0811 12.3767C11.2228 12.3767 11.3563 12.2851 11.4098 12.136L11.6868 11.363H13.5429L13.8169 12.1349C13.8854 12.3279 14.0881 12.4255 14.2699 12.3526C14.4516 12.2798 14.5433 12.0644 14.4748 11.8713L13.0311 7.80366ZM11.9545 10.6158L12.6193 8.76077L13.2777 10.6158H11.9545Z" fill="#1369F1"/>
</svg>
