<svg width="12" height="12" viewBox="0 0 12 12" fill="none" xmlns="http://www.w3.org/2000/svg">
<path d="M11.6263 4.44405C11.1893 4.0767 10.5208 4.12045 10.1414 4.5728L9.91345 4.84252L11.5294 6.19835L11.747 5.92962C12.1215 5.4843 12.0741 4.81924 11.6263 4.44405ZM7.06259 8.21564L6.94233 8.35795C6.83758 8.48351 6.76321 8.63155 6.72501 8.79054L6.39818 10.1583C6.38305 10.2218 6.38589 10.2883 6.40638 10.3502C6.42688 10.4122 6.46422 10.4673 6.51422 10.5092C6.61345 10.5926 6.75342 10.6168 6.87987 10.5628L8.17041 10.0031C8.32006 9.93794 8.45269 9.83915 8.55802 9.71442L8.67869 9.57164L7.06259 8.21564ZM9.4598 5.3793L7.51629 7.67885L9.1323 9.03485L11.0757 6.73514L9.4598 5.3793ZM8.81208 1.55869L7.47656 0.289758C7.3503 0.170063 7.19498 0.0995625 7.03127 0.0537656V2.10938H9.11843C9.07481 1.90055 8.96841 1.70709 8.81208 1.55869Z" fill="#273969"/>
<path d="M6.04111 8.62713C6.10394 8.36414 6.22924 8.11523 6.40296 7.90718L9.14062 4.66779V2.8125H6.67969C6.48537 2.8125 6.32812 2.65526 6.32812 2.46094V0H1.05469C0.473109 0 0 0.473109 0 1.05469V10.9453C0 11.5269 0.473109 12 1.05469 12H8.08594C8.66751 12 9.14062 11.5269 9.14062 10.9453V10.1142L9.09497 10.1683C8.92228 10.3739 8.69946 10.5398 8.45123 10.6479L7.15966 11.2079C6.79563 11.3651 6.37425 11.3094 6.06241 11.0482C5.75444 10.7897 5.6209 10.3863 5.71427 9.99492L6.04111 8.62713ZM1.75781 2.10938H5.27344C5.46776 2.10938 5.625 2.26662 5.625 2.46094C5.625 2.65526 5.46776 2.8125 5.27344 2.8125H1.75781C1.56349 2.8125 1.40625 2.65526 1.40625 2.46094C1.40625 2.26662 1.56349 2.10938 1.75781 2.10938ZM1.75781 4.24219H7.38281C7.57713 4.24219 7.73437 4.39943 7.73437 4.59375C7.73437 4.78807 7.57713 4.94531 7.38281 4.94531H1.75781C1.56349 4.94531 1.40625 4.78807 1.40625 4.59375C1.40625 4.39943 1.56349 4.24219 1.75781 4.24219ZM4.57031 9.16406H1.75781C1.56349 9.16406 1.40625 9.00682 1.40625 8.8125C1.40625 8.61818 1.56349 8.46094 1.75781 8.46094H4.57031C4.76463 8.46094 4.92187 8.61818 4.92187 8.8125C4.92187 9.00682 4.76463 9.16406 4.57031 9.16406ZM1.75781 7.05469C1.56349 7.05469 1.40625 6.89745 1.40625 6.70312C1.40625 6.5088 1.56349 6.35156 1.75781 6.35156H5.97656C6.17088 6.35156 6.32812 6.5088 6.32812 6.70312C6.32812 6.89745 6.17088 7.05469 5.97656 7.05469H1.75781Z" fill="#273969"/>
</svg>
