<svg width="12" height="9" viewBox="0 0 12 9" fill="none" xmlns="http://www.w3.org/2000/svg">
<path d="M7.77551 5.03133L6.77048 6.10697C6.36293 6.54321 5.64583 6.55261 5.22947 6.10697L4.2244 5.03133L0.614647 8.89418C0.749014 8.96045 0.897162 9 1.05466 9H10.9453C11.1028 9 11.2509 8.9605 11.3852 8.8942L7.77551 5.03133Z" fill="#273969"/>
<path d="M10.9453 0H1.05469C0.897187 0 0.749039 0.0395495 0.614719 0.105824L4.47199 4.23384L4.47281 4.23444L4.47312 4.23509L5.72733 5.57732C5.86055 5.71942 6.1395 5.71942 6.27272 5.57732L7.52667 4.23531L7.52723 4.23444L7.52805 4.23384L11.3852 0.105799C11.2509 0.0394995 11.1028 0 10.9453 0ZM0.112172 0.630291C0.0426562 0.780239 0 0.946686 0 1.12498V7.87489C0 8.05318 0.0426094 8.21963 0.112148 8.36958L3.72816 4.50006L0.112172 0.630291ZM11.8878 0.630241L8.27187 4.50006L11.8878 8.36963C11.9573 8.21968 12 8.05323 12 7.87489V1.12498C12 0.946636 11.9573 0.780189 11.8878 0.630241Z" fill="#273969"/>
</svg>
