<svg width="14" height="14" viewBox="0 0 14 14" fill="none" xmlns="http://www.w3.org/2000/svg">
<path d="M5.00715 2.38561C5.89403 0.795202 6.33712 0 7 0C7.66288 0 8.10597 0.795202 8.99285 2.38561L9.22245 2.79721C9.47444 3.24941 9.60044 3.47551 9.79643 3.62461C9.99243 3.77371 10.2374 3.82901 10.7274 3.93961L11.1726 4.04041C12.8946 4.43031 13.7548 4.62491 13.9599 5.28362C14.1643 5.94162 13.5777 6.62832 12.4039 8.00102L12.1001 8.35593C11.7669 8.74583 11.5996 8.94113 11.5247 9.18193C11.4498 9.42343 11.475 9.68383 11.5254 10.2039L11.5716 10.6778C11.7487 12.5097 11.8376 13.4253 11.3014 13.832C10.7652 14.2394 9.95883 13.8677 8.34747 13.1257L7.92958 12.9339C7.47179 12.7225 7.24289 12.6175 7 12.6175C6.75711 12.6175 6.52821 12.7225 6.07042 12.9339L5.65323 13.1257C4.04117 13.8677 3.23479 14.2387 2.6993 13.8327C2.16241 13.4253 2.25131 12.5097 2.42841 10.6778L2.47461 10.2046C2.52501 9.68383 2.5502 9.42343 2.47461 9.18263C2.40041 8.94113 2.23311 8.74583 1.89992 8.35663L1.59613 8.00102C0.422255 6.62902 -0.164332 5.94232 0.0400636 5.28362C0.245159 4.62491 1.10614 4.42961 2.8281 4.04041L3.27329 3.93961C3.76258 3.82901 4.00687 3.77371 4.20357 3.62461C4.39956 3.47551 4.52556 3.24941 4.77755 2.79721L5.00715 2.38561Z" fill="#FFCA14"/>
</svg>
