<svg width="16" height="14" viewBox="0 0 16 14" fill="none" xmlns="http://www.w3.org/2000/svg">
<path fill-rule="evenodd" clip-rule="evenodd" d="M15.836 1.0075C15.8602 0.84724 15.839 0.683484 15.7748 0.534366C15.7105 0.385249 15.6057 0.256591 15.472 0.162637C15.3382 0.0686837 15.1807 0.0131016 15.017 0.00204603C14.8532 -0.00900952 14.6895 0.0248927 14.544 0.0999986L1.32335 6.95104C1.1691 7.03028 1.04185 7.15252 0.957391 7.30255C0.872935 7.45258 0.835001 7.6238 0.848304 7.79493C0.861607 7.96607 0.925559 8.12957 1.03222 8.26513C1.13887 8.40069 1.28353 8.50233 1.44822 8.55742L5.55631 9.94759L13.2298 2.86865L7.01985 10.4427L13.0163 12.4718C13.1395 12.5133 13.2703 12.5275 13.3996 12.5137C13.529 12.4998 13.6537 12.4581 13.7649 12.3916C13.8762 12.325 13.9713 12.2352 14.0436 12.1284C14.1159 12.0217 14.1636 11.9005 14.1834 11.7736L15.836 1.0075ZM6.1367 10.8716V13.1232C6.13678 13.2922 6.18634 13.4576 6.27941 13.5995C6.37249 13.7414 6.50513 13.8538 6.66136 13.923C6.8176 13.9923 6.99078 14.0155 7.16006 13.9899C7.32935 13.9643 7.48754 13.8909 7.61559 13.7787L9.59534 12.0422L6.1367 10.8716Z" fill="white"/>
</svg>
