<svg width="16" height="13" viewBox="0 0 16 13" fill="none" xmlns="http://www.w3.org/2000/svg">
<path d="M6.05487 7.75V7.5C6.05487 7.4337 6.02853 7.37011 5.98165 7.32322C5.93476 7.27634 5.87117 7.25 5.80487 7.25H4.80487C4.73857 7.25 4.67498 7.27634 4.62809 7.32322C4.58121 7.37011 4.55487 7.4337 4.55487 7.5V7.75C4.48857 7.75 4.42498 7.77634 4.37809 7.82322C4.33121 7.87011 4.30487 7.9337 4.30487 8V8.75C4.30487 8.8163 4.33121 8.87989 4.37809 8.92678C4.42498 8.97366 4.48857 9 4.55487 9H6.05487C6.12117 9 6.18476 8.97366 6.23165 8.92678C6.27853 8.87989 6.30487 8.8163 6.30487 8.75V8C6.30487 7.9337 6.27853 7.87011 6.23165 7.82322C6.18476 7.77634 6.12117 7.75 6.05487 7.75ZM5.80487 8.5H4.80487V8.25C4.87117 8.25 4.93476 8.22366 4.98165 8.17678C5.02853 8.12989 5.05487 8.0663 5.05487 8V7.75H5.55487V8C5.55487 8.0663 5.58121 8.12989 5.62809 8.17678C5.67498 8.22366 5.73857 8.25 5.80487 8.25V8.5ZM8.55487 7.75V7.5C8.55487 7.4337 8.52853 7.37011 8.48165 7.32322C8.43476 7.27634 8.37117 7.25 8.30487 7.25H7.30487C7.23857 7.25 7.17498 7.27634 7.12809 7.32322C7.08121 7.37011 7.05487 7.4337 7.05487 7.5V7.75C6.98857 7.75 6.92498 7.77634 6.87809 7.82322C6.83121 7.87011 6.80487 7.9337 6.80487 8V8.75C6.80487 8.8163 6.83121 8.87989 6.87809 8.92678C6.92498 8.97366 6.98857 9 7.05487 9H8.55487C8.62117 9 8.68476 8.97366 8.73165 8.92678C8.77853 8.87989 8.80487 8.8163 8.80487 8.75V8C8.80487 7.9337 8.77853 7.87011 8.73165 7.82322C8.68476 7.77634 8.62117 7.75 8.55487 7.75ZM8.30487 8.5H7.30487V8.25C7.37117 8.25 7.43476 8.22366 7.48165 8.17678C7.52853 8.12989 7.55487 8.0663 7.55487 8V7.75H8.05487V8C8.05487 8.0663 8.08121 8.12989 8.12809 8.17678C8.17498 8.22366 8.23857 8.25 8.30487 8.25V8.5ZM11.0549 7.75V7.5C11.0549 7.4337 11.0285 7.37011 10.9816 7.32322C10.9348 7.27634 10.8712 7.25 10.8049 7.25H9.80487C9.73857 7.25 9.67498 7.27634 9.62809 7.32322C9.58121 7.37011 9.55487 7.4337 9.55487 7.5V7.75C9.48857 7.75 9.42498 7.77634 9.37809 7.82322C9.33121 7.87011 9.30487 7.9337 9.30487 8V8.75C9.30487 8.8163 9.33121 8.87989 9.37809 8.92678C9.42498 8.97366 9.48857 9 9.55487 9H11.0549C11.1212 9 11.1848 8.97366 11.2316 8.92678C11.2785 8.87989 11.3049 8.8163 11.3049 8.75V8C11.3049 7.9337 11.2785 7.87011 11.2316 7.82322C11.1848 7.77634 11.1212 7.75 11.0549 7.75ZM10.8049 8.5H9.80487V8.25C9.87117 8.25 9.93476 8.22366 9.98165 8.17678C10.0285 8.12989 10.0549 8.0663 10.0549 8V7.75H10.5549V8C10.5549 8.0663 10.5812 8.12989 10.6281 8.17678C10.675 8.22366 10.7386 8.25 10.8049 8.25V8.5ZM13.5549 7.5C13.5549 7.4337 13.5285 7.37011 13.4816 7.32322C13.4348 7.27634 13.3712 7.25 13.3049 7.25H12.3049C12.2386 7.25 12.175 7.27634 12.1281 7.32322C12.0812 7.37011 12.0549 7.4337 12.0549 7.5V7.75C11.9886 7.75 11.925 7.77634 11.8781 7.82322C11.8312 7.87011 11.8049 7.9337 11.8049 8V8.75C11.8049 8.8163 11.8312 8.87989 11.8781 8.92678C11.925 8.97366 11.9886 9 12.0549 9H13.5549C13.6212 9 13.6848 8.97366 13.7316 8.92678C13.7785 8.87989 13.8049 8.8163 13.8049 8.75V8C13.8049 7.9337 13.7785 7.87011 13.7316 7.82322C13.6848 7.77634 13.6212 7.75 13.5549 7.75V7.5ZM13.3049 8.5H12.3049V8.25C12.3712 8.25 12.4348 8.22366 12.4816 8.17678C12.5285 8.12989 12.5549 8.0663 12.5549 8V7.75H13.0549V8C13.0549 8.0663 13.0812 8.12989 13.1281 8.17678C13.175 8.22366 13.2386 8.25 13.3049 8.25V8.5ZM6.05487 9.5H4.55487C4.48857 9.5 4.42498 9.52634 4.37809 9.57322C4.33121 9.62011 4.30487 9.6837 4.30487 9.75V10.5C4.30487 10.5663 4.33121 10.6299 4.37809 10.6768C4.42498 10.7237 4.48857 10.75 4.55487 10.75V11C4.55487 11.0663 4.58121 11.1299 4.62809 11.1768C4.67498 11.2237 4.73857 11.25 4.80487 11.25H5.80487C5.87117 11.25 5.93476 11.2237 5.98165 11.1768C6.02853 11.1299 6.05487 11.0663 6.05487 11V10.75C6.12117 10.75 6.18476 10.7237 6.23165 10.6768C6.27853 10.6299 6.30487 10.5663 6.30487 10.5V9.75C6.30487 9.6837 6.27853 9.62011 6.23165 9.57322C6.18476 9.52634 6.12117 9.5 6.05487 9.5ZM5.80487 10.25C5.73857 10.25 5.67498 10.2763 5.62809 10.3232C5.58121 10.3701 5.55487 10.4337 5.55487 10.5V10.75H5.05487V10.5C5.05487 10.4337 5.02853 10.3701 4.98165 10.3232C4.93476 10.2763 4.87117 10.25 4.80487 10.25V10H5.80487V10.25ZM8.55487 9.5H7.05487C6.98857 9.5 6.92498 9.52634 6.87809 9.57322C6.83121 9.62011 6.80487 9.6837 6.80487 9.75V10.5C6.80487 10.5663 6.83121 10.6299 6.87809 10.6768C6.92498 10.7237 6.98857 10.75 7.05487 10.75V11C7.05487 11.0663 7.08121 11.1299 7.12809 11.1768C7.17498 11.2237 7.23857 11.25 7.30487 11.25H8.30487C8.37117 11.25 8.43476 11.2237 8.48165 11.1768C8.52853 11.1299 8.55487 11.0663 8.55487 11V10.75C8.62117 10.75 8.68476 10.7237 8.73165 10.6768C8.77853 10.6299 8.80487 10.5663 8.80487 10.5V9.75C8.80487 9.6837 8.77853 9.62011 8.73165 9.57322C8.68476 9.52634 8.62117 9.5 8.55487 9.5ZM8.30487 10.25C8.23857 10.25 8.17498 10.2763 8.12809 10.3232C8.08121 10.3701 8.05487 10.4337 8.05487 10.5V10.75H7.55487V10.5C7.55487 10.4337 7.52853 10.3701 7.48165 10.3232C7.43476 10.2763 7.37117 10.25 7.30487 10.25V10H8.30487V10.25ZM11.0549 9.5H9.55487C9.48857 9.5 9.42498 9.52634 9.37809 9.57322C9.33121 9.62011 9.30487 9.6837 9.30487 9.75V10.5C9.30487 10.5663 9.33121 10.6299 9.37809 10.6768C9.42498 10.7237 9.48857 10.75 9.55487 10.75V11C9.55487 11.0663 9.58121 11.1299 9.62809 11.1768C9.67498 11.2237 9.73857 11.25 9.80487 11.25H10.8049C10.8712 11.25 10.9348 11.2237 10.9816 11.1768C11.0285 11.1299 11.0549 11.0663 11.0549 11V10.75C11.1212 10.75 11.1848 10.7237 11.2316 10.6768C11.2785 10.6299 11.3049 10.5663 11.3049 10.5V9.75C11.3049 9.6837 11.2785 9.62011 11.2316 9.57322C11.1848 9.52634 11.1212 9.5 11.0549 9.5ZM10.8049 10.25C10.7386 10.25 10.675 10.2763 10.6281 10.3232C10.5812 10.3701 10.5549 10.4337 10.5549 10.5V10.75H10.0549V10.5C10.0549 10.4337 10.0285 10.3701 9.98165 10.3232C9.93476 10.2763 9.87117 10.25 9.80487 10.25V10H10.8049V10.25ZM13.5549 9.5H12.0549C11.9886 9.5 11.925 9.52634 11.8781 9.57322C11.8312 9.62011 11.8049 9.6837 11.8049 9.75V10.5C11.8049 10.5663 11.8312 10.6299 11.8781 10.6768C11.925 10.7237 11.9886 10.75 12.0549 10.75V11C12.0549 11.0663 12.0812 11.1299 12.1281 11.1768C12.175 11.2237 12.2386 11.25 12.3049 11.25H13.3049C13.3712 11.25 13.4348 11.2237 13.4816 11.1768C13.5285 11.1299 13.5549 11.0663 13.5549 11V10.75C13.6212 10.75 13.6848 10.7237 13.7316 10.6768C13.7785 10.6299 13.8049 10.5663 13.8049 10.5V9.75C13.8049 9.6837 13.7785 9.62011 13.7316 9.57322C13.6848 9.52634 13.6212 9.5 13.5549 9.5ZM13.3049 10.25C13.2386 10.25 13.175 10.2763 13.1281 10.3232C13.0812 10.3701 13.0549 10.4337 13.0549 10.5V10.75H12.5549V10.5C12.5549 10.4337 12.5285 10.3701 12.4816 10.3232C12.4348 10.2763 12.3712 10.25 12.3049 10.25V10H13.3049V10.25Z" fill="black"/>
<path d="M6.05487 7.75V7.5C6.05487 7.4337 6.02853 7.37011 5.98165 7.32322C5.93476 7.27634 5.87117 7.25 5.80487 7.25H4.80487C4.73857 7.25 4.67498 7.27634 4.62809 7.32322C4.58121 7.37011 4.55487 7.4337 4.55487 7.5V7.75C4.48857 7.75 4.42498 7.77634 4.37809 7.82322C4.33121 7.87011 4.30487 7.9337 4.30487 8V8.75C4.30487 8.8163 4.33121 8.87989 4.37809 8.92678C4.42498 8.97366 4.48857 9 4.55487 9H6.05487C6.12117 9 6.18476 8.97366 6.23165 8.92678C6.27853 8.87989 6.30487 8.8163 6.30487 8.75V8C6.30487 7.9337 6.27853 7.87011 6.23165 7.82322C6.18476 7.77634 6.12117 7.75 6.05487 7.75ZM5.80487 8.5H4.80487V8.25C4.87117 8.25 4.93476 8.22366 4.98165 8.17678C5.02853 8.12989 5.05487 8.0663 5.05487 8V7.75H5.55487V8C5.55487 8.0663 5.58121 8.12989 5.62809 8.17678C5.67498 8.22366 5.73857 8.25 5.80487 8.25V8.5ZM8.55487 7.75V7.5C8.55487 7.4337 8.52853 7.37011 8.48165 7.32322C8.43476 7.27634 8.37117 7.25 8.30487 7.25H7.30487C7.23857 7.25 7.17498 7.27634 7.12809 7.32322C7.08121 7.37011 7.05487 7.4337 7.05487 7.5V7.75C6.98857 7.75 6.92498 7.77634 6.87809 7.82322C6.83121 7.87011 6.80487 7.9337 6.80487 8V8.75C6.80487 8.8163 6.83121 8.87989 6.87809 8.92678C6.92498 8.97366 6.98857 9 7.05487 9H8.55487C8.62117 9 8.68476 8.97366 8.73165 8.92678C8.77853 8.87989 8.80487 8.8163 8.80487 8.75V8C8.80487 7.9337 8.77853 7.87011 8.73165 7.82322C8.68476 7.77634 8.62117 7.75 8.55487 7.75ZM8.30487 8.5H7.30487V8.25C7.37117 8.25 7.43476 8.22366 7.48165 8.17678C7.52853 8.12989 7.55487 8.0663 7.55487 8V7.75H8.05487V8C8.05487 8.0663 8.08121 8.12989 8.12809 8.17678C8.17498 8.22366 8.23857 8.25 8.30487 8.25V8.5ZM11.0549 7.75V7.5C11.0549 7.4337 11.0285 7.37011 10.9816 7.32322C10.9348 7.27634 10.8712 7.25 10.8049 7.25H9.80487C9.73857 7.25 9.67498 7.27634 9.62809 7.32322C9.58121 7.37011 9.55487 7.4337 9.55487 7.5V7.75C9.48857 7.75 9.42498 7.77634 9.37809 7.82322C9.33121 7.87011 9.30487 7.9337 9.30487 8V8.75C9.30487 8.8163 9.33121 8.87989 9.37809 8.92678C9.42498 8.97366 9.48857 9 9.55487 9H11.0549C11.1212 9 11.1848 8.97366 11.2316 8.92678C11.2785 8.87989 11.3049 8.8163 11.3049 8.75V8C11.3049 7.9337 11.2785 7.87011 11.2316 7.82322C11.1848 7.77634 11.1212 7.75 11.0549 7.75ZM10.8049 8.5H9.80487V8.25C9.87117 8.25 9.93476 8.22366 9.98165 8.17678C10.0285 8.12989 10.0549 8.0663 10.0549 8V7.75H10.5549V8C10.5549 8.0663 10.5812 8.12989 10.6281 8.17678C10.675 8.22366 10.7386 8.25 10.8049 8.25V8.5ZM13.5549 7.5C13.5549 7.4337 13.5285 7.37011 13.4816 7.32322C13.4348 7.27634 13.3712 7.25 13.3049 7.25H12.3049C12.2386 7.25 12.175 7.27634 12.1281 7.32322C12.0812 7.37011 12.0549 7.4337 12.0549 7.5V7.75C11.9886 7.75 11.925 7.77634 11.8781 7.82322C11.8312 7.87011 11.8049 7.9337 11.8049 8V8.75C11.8049 8.8163 11.8312 8.87989 11.8781 8.92678C11.925 8.97366 11.9886 9 12.0549 9H13.5549C13.6212 9 13.6848 8.97366 13.7316 8.92678C13.7785 8.87989 13.8049 8.8163 13.8049 8.75V8C13.8049 7.9337 13.7785 7.87011 13.7316 7.82322C13.6848 7.77634 13.6212 7.75 13.5549 7.75V7.5ZM13.3049 8.5H12.3049V8.25C12.3712 8.25 12.4348 8.22366 12.4816 8.17678C12.5285 8.12989 12.5549 8.0663 12.5549 8V7.75H13.0549V8C13.0549 8.0663 13.0812 8.12989 13.1281 8.17678C13.175 8.22366 13.2386 8.25 13.3049 8.25V8.5ZM6.05487 9.5H4.55487C4.48857 9.5 4.42498 9.52634 4.37809 9.57322C4.33121 9.62011 4.30487 9.6837 4.30487 9.75V10.5C4.30487 10.5663 4.33121 10.6299 4.37809 10.6768C4.42498 10.7237 4.48857 10.75 4.55487 10.75V11C4.55487 11.0663 4.58121 11.1299 4.62809 11.1768C4.67498 11.2237 4.73857 11.25 4.80487 11.25H5.80487C5.87117 11.25 5.93476 11.2237 5.98165 11.1768C6.02853 11.1299 6.05487 11.0663 6.05487 11V10.75C6.12117 10.75 6.18476 10.7237 6.23165 10.6768C6.27853 10.6299 6.30487 10.5663 6.30487 10.5V9.75C6.30487 9.6837 6.27853 9.62011 6.23165 9.57322C6.18476 9.52634 6.12117 9.5 6.05487 9.5ZM5.80487 10.25C5.73857 10.25 5.67498 10.2763 5.62809 10.3232C5.58121 10.3701 5.55487 10.4337 5.55487 10.5V10.75H5.05487V10.5C5.05487 10.4337 5.02853 10.3701 4.98165 10.3232C4.93476 10.2763 4.87117 10.25 4.80487 10.25V10H5.80487V10.25ZM8.55487 9.5H7.05487C6.98857 9.5 6.92498 9.52634 6.87809 9.57322C6.83121 9.62011 6.80487 9.6837 6.80487 9.75V10.5C6.80487 10.5663 6.83121 10.6299 6.87809 10.6768C6.92498 10.7237 6.98857 10.75 7.05487 10.75V11C7.05487 11.0663 7.08121 11.1299 7.12809 11.1768C7.17498 11.2237 7.23857 11.25 7.30487 11.25H8.30487C8.37117 11.25 8.43476 11.2237 8.48165 11.1768C8.52853 11.1299 8.55487 11.0663 8.55487 11V10.75C8.62117 10.75 8.68476 10.7237 8.73165 10.6768C8.77853 10.6299 8.80487 10.5663 8.80487 10.5V9.75C8.80487 9.6837 8.77853 9.62011 8.73165 9.57322C8.68476 9.52634 8.62117 9.5 8.55487 9.5ZM8.30487 10.25C8.23857 10.25 8.17498 10.2763 8.12809 10.3232C8.08121 10.3701 8.05487 10.4337 8.05487 10.5V10.75H7.55487V10.5C7.55487 10.4337 7.52853 10.3701 7.48165 10.3232C7.43476 10.2763 7.37117 10.25 7.30487 10.25V10H8.30487V10.25ZM11.0549 9.5H9.55487C9.48857 9.5 9.42498 9.52634 9.37809 9.57322C9.33121 9.62011 9.30487 9.6837 9.30487 9.75V10.5C9.30487 10.5663 9.33121 10.6299 9.37809 10.6768C9.42498 10.7237 9.48857 10.75 9.55487 10.75V11C9.55487 11.0663 9.58121 11.1299 9.62809 11.1768C9.67498 11.2237 9.73857 11.25 9.80487 11.25H10.8049C10.8712 11.25 10.9348 11.2237 10.9816 11.1768C11.0285 11.1299 11.0549 11.0663 11.0549 11V10.75C11.1212 10.75 11.1848 10.7237 11.2316 10.6768C11.2785 10.6299 11.3049 10.5663 11.3049 10.5V9.75C11.3049 9.6837 11.2785 9.62011 11.2316 9.57322C11.1848 9.52634 11.1212 9.5 11.0549 9.5ZM10.8049 10.25C10.7386 10.25 10.675 10.2763 10.6281 10.3232C10.5812 10.3701 10.5549 10.4337 10.5549 10.5V10.75H10.0549V10.5C10.0549 10.4337 10.0285 10.3701 9.98165 10.3232C9.93476 10.2763 9.87117 10.25 9.80487 10.25V10H10.8049V10.25ZM13.5549 9.5H12.0549C11.9886 9.5 11.925 9.52634 11.8781 9.57322C11.8312 9.62011 11.8049 9.6837 11.8049 9.75V10.5C11.8049 10.5663 11.8312 10.6299 11.8781 10.6768C11.925 10.7237 11.9886 10.75 12.0549 10.75V11C12.0549 11.0663 12.0812 11.1299 12.1281 11.1768C12.175 11.2237 12.2386 11.25 12.3049 11.25H13.3049C13.3712 11.25 13.4348 11.2237 13.4816 11.1768C13.5285 11.1299 13.5549 11.0663 13.5549 11V10.75C13.6212 10.75 13.6848 10.7237 13.7316 10.6768C13.7785 10.6299 13.8049 10.5663 13.8049 10.5V9.75C13.8049 9.6837 13.7785 9.62011 13.7316 9.57322C13.6848 9.52634 13.6212 9.5 13.5549 9.5ZM13.3049 10.25C13.2386 10.25 13.175 10.2763 13.1281 10.3232C13.0812 10.3701 13.0549 10.4337 13.0549 10.5V10.75H12.5549V10.5C12.5549 10.4337 12.5285 10.3701 12.4816 10.3232C12.4348 10.2763 12.3712 10.25 12.3049 10.25V10H13.3049V10.25Z" fill="#273969"/>
<path d="M1.80487 8.75C2.08101 8.75 2.30487 8.52614 2.30487 8.25C2.30487 7.97386 2.08101 7.75 1.80487 7.75C1.52873 7.75 1.30487 7.97386 1.30487 8.25C1.30487 8.52614 1.52873 8.75 1.80487 8.75Z" fill="black"/>
<path d="M1.80487 8.75C2.08101 8.75 2.30487 8.52614 2.30487 8.25C2.30487 7.97386 2.08101 7.75 1.80487 7.75C1.52873 7.75 1.30487 7.97386 1.30487 8.25C1.30487 8.52614 1.52873 8.75 1.80487 8.75Z" fill="#273969"/>
<path d="M3.30487 8.75C3.58101 8.75 3.80487 8.52614 3.80487 8.25C3.80487 7.97386 3.58101 7.75 3.30487 7.75C3.02873 7.75 2.80487 7.97386 2.80487 8.25C2.80487 8.52614 3.02873 8.75 3.30487 8.75Z" fill="black"/>
<path d="M3.30487 8.75C3.58101 8.75 3.80487 8.52614 3.80487 8.25C3.80487 7.97386 3.58101 7.75 3.30487 7.75C3.02873 7.75 2.80487 7.97386 2.80487 8.25C2.80487 8.52614 3.02873 8.75 3.30487 8.75Z" fill="#273969"/>
<path d="M3.30487 9.25H1.80487C1.73857 9.25 1.67498 9.27634 1.62809 9.32322C1.58121 9.37011 1.55487 9.4337 1.55487 9.5C1.55487 9.5663 1.58121 9.62989 1.62809 9.67678C1.67498 9.72366 1.73857 9.75 1.80487 9.75H3.30487C3.37117 9.75 3.43476 9.72366 3.48165 9.67678C3.52853 9.62989 3.55487 9.5663 3.55487 9.5C3.55487 9.4337 3.52853 9.37011 3.48165 9.32322C3.43476 9.27634 3.37117 9.25 3.30487 9.25Z" fill="black"/>
<path d="M3.30487 9.25H1.80487C1.73857 9.25 1.67498 9.27634 1.62809 9.32322C1.58121 9.37011 1.55487 9.4337 1.55487 9.5C1.55487 9.5663 1.58121 9.62989 1.62809 9.67678C1.67498 9.72366 1.73857 9.75 1.80487 9.75H3.30487C3.37117 9.75 3.43476 9.72366 3.48165 9.67678C3.52853 9.62989 3.55487 9.5663 3.55487 9.5C3.55487 9.4337 3.52853 9.37011 3.48165 9.32322C3.43476 9.27634 3.37117 9.25 3.30487 9.25Z" fill="#273969"/>
<path d="M15.0549 6C15.1212 6 15.1848 5.97366 15.2316 5.92678C15.2785 5.87989 15.3049 5.8163 15.3049 5.75V1C15.3049 0.933696 15.2785 0.870107 15.2316 0.823223C15.1848 0.776339 15.1212 0.75 15.0549 0.75C14.9223 0.75 14.7951 0.697321 14.7013 0.603553C14.6075 0.509785 14.5549 0.382608 14.5549 0.25C14.5549 0.183696 14.5285 0.120107 14.4816 0.0732234C14.4348 0.0263393 14.3712 0 14.3049 0H1.30487C1.23857 0 1.17498 0.0263393 1.12809 0.0732234C1.08121 0.120107 1.05487 0.183696 1.05487 0.25C1.05487 0.382608 1.00219 0.509785 0.908424 0.603553C0.814656 0.697321 0.687479 0.75 0.554871 0.75C0.488566 0.75 0.424978 0.776339 0.378094 0.823223C0.33121 0.870107 0.304871 0.933696 0.304871 1V5.75C0.304871 5.8163 0.33121 5.87989 0.378094 5.92678C0.424978 5.97366 0.488566 6 0.554871 6H1.80487V6.25H1.30487C1.23857 6.25 1.17498 6.27634 1.12809 6.32322C1.08121 6.37011 1.05487 6.4337 1.05487 6.5C1.05487 6.63261 1.00219 6.75979 0.908424 6.85355C0.814656 6.94732 0.687479 7 0.554871 7C0.488566 7 0.424978 7.02634 0.378094 7.07322C0.33121 7.12011 0.304871 7.1837 0.304871 7.25V12C0.304871 12.0663 0.33121 12.1299 0.378094 12.1768C0.424978 12.2237 0.488566 12.25 0.554871 12.25H1.80487V12.75C1.80487 12.8163 1.83121 12.8799 1.87809 12.9268C1.92498 12.9737 1.98857 13 2.05487 13H3.30487C3.37117 13 3.43476 12.9737 3.48165 12.9268C3.52853 12.8799 3.55487 12.8163 3.55487 12.75V12.25H12.0549V12.75C12.0549 12.8163 12.0812 12.8799 12.1281 12.9268C12.175 12.9737 12.2386 13 12.3049 13H13.5549C13.6212 13 13.6848 12.9737 13.7316 12.9268C13.7785 12.8799 13.8049 12.8163 13.8049 12.75V12.25H15.0549C15.1212 12.25 15.1848 12.2237 15.2316 12.1768C15.2785 12.1299 15.3049 12.0663 15.3049 12V7.25C15.3049 7.1837 15.2785 7.12011 15.2316 7.07322C15.1848 7.02634 15.1212 7 15.0549 7C14.9223 7 14.7951 6.94732 14.7013 6.85355C14.6075 6.75979 14.5549 6.63261 14.5549 6.5C14.5549 6.4337 14.5285 6.37011 14.4816 6.32322C14.4348 6.27634 14.3712 6.25 14.3049 6.25H13.8049V6H15.0549ZM0.804871 1.2175C0.9776 1.17279 1.13522 1.08268 1.26138 0.956514C1.38755 0.830351 1.47766 0.672729 1.52237 0.5H14.0874C14.1321 0.672729 14.2222 0.830351 14.3484 0.956514C14.4745 1.08268 14.6321 1.17279 14.8049 1.2175V5.5H0.804871V1.2175ZM3.55487 6.25V6H12.0549V6.25H3.55487ZM2.30487 6H3.05487V6.25H2.30487V6ZM3.05487 12.5H2.30487V12.25H3.05487V12.5ZM13.3049 12.5H12.5549V12.25H13.3049V12.5ZM14.8049 7.4675V11.75H0.804871V7.4675C0.9776 7.42279 1.13522 7.33268 1.26138 7.20651C1.38755 7.08035 1.47766 6.92273 1.52237 6.75H14.0874C14.1321 6.92273 14.2222 7.08035 14.3484 7.20651C14.4745 7.33268 14.6321 7.42279 14.8049 7.4675ZM13.3049 6.25H12.5549V6H13.3049V6.25Z" fill="black"/>
<path d="M15.0549 6C15.1212 6 15.1848 5.97366 15.2316 5.92678C15.2785 5.87989 15.3049 5.8163 15.3049 5.75V1C15.3049 0.933696 15.2785 0.870107 15.2316 0.823223C15.1848 0.776339 15.1212 0.75 15.0549 0.75C14.9223 0.75 14.7951 0.697321 14.7013 0.603553C14.6075 0.509785 14.5549 0.382608 14.5549 0.25C14.5549 0.183696 14.5285 0.120107 14.4816 0.0732234C14.4348 0.0263393 14.3712 0 14.3049 0H1.30487C1.23857 0 1.17498 0.0263393 1.12809 0.0732234C1.08121 0.120107 1.05487 0.183696 1.05487 0.25C1.05487 0.382608 1.00219 0.509785 0.908424 0.603553C0.814656 0.697321 0.687479 0.75 0.554871 0.75C0.488566 0.75 0.424978 0.776339 0.378094 0.823223C0.33121 0.870107 0.304871 0.933696 0.304871 1V5.75C0.304871 5.8163 0.33121 5.87989 0.378094 5.92678C0.424978 5.97366 0.488566 6 0.554871 6H1.80487V6.25H1.30487C1.23857 6.25 1.17498 6.27634 1.12809 6.32322C1.08121 6.37011 1.05487 6.4337 1.05487 6.5C1.05487 6.63261 1.00219 6.75979 0.908424 6.85355C0.814656 6.94732 0.687479 7 0.554871 7C0.488566 7 0.424978 7.02634 0.378094 7.07322C0.33121 7.12011 0.304871 7.1837 0.304871 7.25V12C0.304871 12.0663 0.33121 12.1299 0.378094 12.1768C0.424978 12.2237 0.488566 12.25 0.554871 12.25H1.80487V12.75C1.80487 12.8163 1.83121 12.8799 1.87809 12.9268C1.92498 12.9737 1.98857 13 2.05487 13H3.30487C3.37117 13 3.43476 12.9737 3.48165 12.9268C3.52853 12.8799 3.55487 12.8163 3.55487 12.75V12.25H12.0549V12.75C12.0549 12.8163 12.0812 12.8799 12.1281 12.9268C12.175 12.9737 12.2386 13 12.3049 13H13.5549C13.6212 13 13.6848 12.9737 13.7316 12.9268C13.7785 12.8799 13.8049 12.8163 13.8049 12.75V12.25H15.0549C15.1212 12.25 15.1848 12.2237 15.2316 12.1768C15.2785 12.1299 15.3049 12.0663 15.3049 12V7.25C15.3049 7.1837 15.2785 7.12011 15.2316 7.07322C15.1848 7.02634 15.1212 7 15.0549 7C14.9223 7 14.7951 6.94732 14.7013 6.85355C14.6075 6.75979 14.5549 6.63261 14.5549 6.5C14.5549 6.4337 14.5285 6.37011 14.4816 6.32322C14.4348 6.27634 14.3712 6.25 14.3049 6.25H13.8049V6H15.0549ZM0.804871 1.2175C0.9776 1.17279 1.13522 1.08268 1.26138 0.956514C1.38755 0.830351 1.47766 0.672729 1.52237 0.5H14.0874C14.1321 0.672729 14.2222 0.830351 14.3484 0.956514C14.4745 1.08268 14.6321 1.17279 14.8049 1.2175V5.5H0.804871V1.2175ZM3.55487 6.25V6H12.0549V6.25H3.55487ZM2.30487 6H3.05487V6.25H2.30487V6ZM3.05487 12.5H2.30487V12.25H3.05487V12.5ZM13.3049 12.5H12.5549V12.25H13.3049V12.5ZM14.8049 7.4675V11.75H0.804871V7.4675C0.9776 7.42279 1.13522 7.33268 1.26138 7.20651C1.38755 7.08035 1.47766 6.92273 1.52237 6.75H14.0874C14.1321 6.92273 14.2222 7.08035 14.3484 7.20651C14.4745 7.33268 14.6321 7.42279 14.8049 7.4675ZM13.3049 6.25H12.5549V6H13.3049V6.25Z" fill="#273969"/>
<path d="M4.55487 2.75H6.05487C6.12117 2.75 6.18476 2.72366 6.23165 2.67678C6.27853 2.62989 6.30487 2.5663 6.30487 2.5V1.75C6.30487 1.6837 6.27853 1.62011 6.23165 1.57322C6.18476 1.52634 6.12117 1.5 6.05487 1.5V1.25C6.05487 1.1837 6.02853 1.12011 5.98165 1.07322C5.93476 1.02634 5.87117 1 5.80487 1H4.80487C4.73857 1 4.67498 1.02634 4.62809 1.07322C4.58121 1.12011 4.55487 1.1837 4.55487 1.25V1.5C4.48857 1.5 4.42498 1.52634 4.37809 1.57322C4.33121 1.62011 4.30487 1.6837 4.30487 1.75V2.5C4.30487 2.5663 4.33121 2.62989 4.37809 2.67678C4.42498 2.72366 4.48857 2.75 4.55487 2.75ZM4.80487 2C4.87117 2 4.93476 1.97366 4.98165 1.92678C5.02853 1.87989 5.05487 1.8163 5.05487 1.75V1.5H5.55487V1.75C5.55487 1.8163 5.58121 1.87989 5.62809 1.92678C5.67498 1.97366 5.73857 2 5.80487 2V2.25H4.80487V2ZM7.05487 2.75H8.55487C8.62117 2.75 8.68476 2.72366 8.73165 2.67678C8.77853 2.62989 8.80487 2.5663 8.80487 2.5V1.75C8.80487 1.6837 8.77853 1.62011 8.73165 1.57322C8.68476 1.52634 8.62117 1.5 8.55487 1.5V1.25C8.55487 1.1837 8.52853 1.12011 8.48165 1.07322C8.43476 1.02634 8.37117 1 8.30487 1H7.30487C7.23857 1 7.17498 1.02634 7.12809 1.07322C7.08121 1.12011 7.05487 1.1837 7.05487 1.25V1.5C6.98857 1.5 6.92498 1.52634 6.87809 1.57322C6.83121 1.62011 6.80487 1.6837 6.80487 1.75V2.5C6.80487 2.5663 6.83121 2.62989 6.87809 2.67678C6.92498 2.72366 6.98857 2.75 7.05487 2.75ZM7.30487 2C7.37117 2 7.43476 1.97366 7.48165 1.92678C7.52853 1.87989 7.55487 1.8163 7.55487 1.75V1.5H8.05487V1.75C8.05487 1.8163 8.08121 1.87989 8.12809 1.92678C8.17498 1.97366 8.23857 2 8.30487 2V2.25H7.30487V2ZM9.55487 2.75H11.0549C11.1212 2.75 11.1848 2.72366 11.2316 2.67678C11.2785 2.62989 11.3049 2.5663 11.3049 2.5V1.75C11.3049 1.6837 11.2785 1.62011 11.2316 1.57322C11.1848 1.52634 11.1212 1.5 11.0549 1.5V1.25C11.0549 1.1837 11.0285 1.12011 10.9816 1.07322C10.9348 1.02634 10.8712 1 10.8049 1H9.80487C9.73857 1 9.67498 1.02634 9.62809 1.07322C9.58121 1.12011 9.55487 1.1837 9.55487 1.25V1.5C9.48857 1.5 9.42498 1.52634 9.37809 1.57322C9.33121 1.62011 9.30487 1.6837 9.30487 1.75V2.5C9.30487 2.5663 9.33121 2.62989 9.37809 2.67678C9.42498 2.72366 9.48857 2.75 9.55487 2.75ZM9.80487 2C9.87117 2 9.93476 1.97366 9.98165 1.92678C10.0285 1.87989 10.0549 1.8163 10.0549 1.75V1.5H10.5549V1.75C10.5549 1.8163 10.5812 1.87989 10.6281 1.92678C10.675 1.97366 10.7386 2 10.8049 2V2.25H9.80487V2ZM12.0549 2.75H13.5549C13.6212 2.75 13.6848 2.72366 13.7316 2.67678C13.7785 2.62989 13.8049 2.5663 13.8049 2.5V1.75C13.8049 1.6837 13.7785 1.62011 13.7316 1.57322C13.6848 1.52634 13.6212 1.5 13.5549 1.5V1.25C13.5549 1.1837 13.5285 1.12011 13.4816 1.07322C13.4348 1.02634 13.3712 1 13.3049 1H12.3049C12.2386 1 12.175 1.02634 12.1281 1.07322C12.0812 1.12011 12.0549 1.1837 12.0549 1.25V1.5C11.9886 1.5 11.925 1.52634 11.8781 1.57322C11.8312 1.62011 11.8049 1.6837 11.8049 1.75V2.5C11.8049 2.5663 11.8312 2.62989 11.8781 2.67678C11.925 2.72366 11.9886 2.75 12.0549 2.75ZM12.3049 2C12.3712 2 12.4348 1.97366 12.4816 1.92678C12.5285 1.87989 12.5549 1.8163 12.5549 1.75V1.5H13.0549V1.75C13.0549 1.8163 13.0812 1.87989 13.1281 1.92678C13.175 1.97366 13.2386 2 13.3049 2V2.25H12.3049V2ZM4.55487 4.5V4.75C4.55487 4.8163 4.58121 4.87989 4.62809 4.92678C4.67498 4.97366 4.73857 5 4.80487 5H5.80487C5.87117 5 5.93476 4.97366 5.98165 4.92678C6.02853 4.87989 6.05487 4.8163 6.05487 4.75V4.5C6.12117 4.5 6.18476 4.47366 6.23165 4.42678C6.27853 4.37989 6.30487 4.3163 6.30487 4.25V3.5C6.30487 3.4337 6.27853 3.37011 6.23165 3.32322C6.18476 3.27634 6.12117 3.25 6.05487 3.25H4.55487C4.48857 3.25 4.42498 3.27634 4.37809 3.32322C4.33121 3.37011 4.30487 3.4337 4.30487 3.5V4.25C4.30487 4.3163 4.33121 4.37989 4.37809 4.42678C4.42498 4.47366 4.48857 4.5 4.55487 4.5ZM4.80487 3.75H5.80487V4C5.73857 4 5.67498 4.02634 5.62809 4.07322C5.58121 4.12011 5.55487 4.1837 5.55487 4.25V4.5H5.05487V4.25C5.05487 4.1837 5.02853 4.12011 4.98165 4.07322C4.93476 4.02634 4.87117 4 4.80487 4V3.75ZM7.05487 4.5V4.75C7.05487 4.8163 7.08121 4.87989 7.12809 4.92678C7.17498 4.97366 7.23857 5 7.30487 5H8.30487C8.37117 5 8.43476 4.97366 8.48165 4.92678C8.52853 4.87989 8.55487 4.8163 8.55487 4.75V4.5C8.62117 4.5 8.68476 4.47366 8.73165 4.42678C8.77853 4.37989 8.80487 4.3163 8.80487 4.25V3.5C8.80487 3.4337 8.77853 3.37011 8.73165 3.32322C8.68476 3.27634 8.62117 3.25 8.55487 3.25H7.05487C6.98857 3.25 6.92498 3.27634 6.87809 3.32322C6.83121 3.37011 6.80487 3.4337 6.80487 3.5V4.25C6.80487 4.3163 6.83121 4.37989 6.87809 4.42678C6.92498 4.47366 6.98857 4.5 7.05487 4.5ZM7.30487 3.75H8.30487V4C8.23857 4 8.17498 4.02634 8.12809 4.07322C8.08121 4.12011 8.05487 4.1837 8.05487 4.25V4.5H7.55487V4.25C7.55487 4.1837 7.52853 4.12011 7.48165 4.07322C7.43476 4.02634 7.37117 4 7.30487 4V3.75ZM9.55487 4.5V4.75C9.55487 4.8163 9.58121 4.87989 9.62809 4.92678C9.67498 4.97366 9.73857 5 9.80487 5H10.8049C10.8712 5 10.9348 4.97366 10.9816 4.92678C11.0285 4.87989 11.0549 4.8163 11.0549 4.75V4.5C11.1212 4.5 11.1848 4.47366 11.2316 4.42678C11.2785 4.37989 11.3049 4.3163 11.3049 4.25V3.5C11.3049 3.4337 11.2785 3.37011 11.2316 3.32322C11.1848 3.27634 11.1212 3.25 11.0549 3.25H9.55487C9.48857 3.25 9.42498 3.27634 9.37809 3.32322C9.33121 3.37011 9.30487 3.4337 9.30487 3.5V4.25C9.30487 4.3163 9.33121 4.37989 9.37809 4.42678C9.42498 4.47366 9.48857 4.5 9.55487 4.5ZM9.80487 3.75H10.8049V4C10.7386 4 10.675 4.02634 10.6281 4.07322C10.5812 4.12011 10.5549 4.1837 10.5549 4.25V4.5H10.0549V4.25C10.0549 4.1837 10.0285 4.12011 9.98165 4.07322C9.93476 4.02634 9.87117 4 9.80487 4V3.75ZM12.0549 4.5V4.75C12.0549 4.8163 12.0812 4.87989 12.1281 4.92678C12.175 4.97366 12.2386 5 12.3049 5H13.3049C13.3712 5 13.4348 4.97366 13.4816 4.92678C13.5285 4.87989 13.5549 4.8163 13.5549 4.75V4.5C13.6212 4.5 13.6848 4.47366 13.7316 4.42678C13.7785 4.37989 13.8049 4.3163 13.8049 4.25V3.5C13.8049 3.4337 13.7785 3.37011 13.7316 3.32322C13.6848 3.27634 13.6212 3.25 13.5549 3.25H12.0549C11.9886 3.25 11.925 3.27634 11.8781 3.32322C11.8312 3.37011 11.8049 3.4337 11.8049 3.5V4.25C11.8049 4.3163 11.8312 4.37989 11.8781 4.42678C11.925 4.47366 11.9886 4.5 12.0549 4.5ZM12.3049 3.75H13.3049V4C13.2386 4 13.175 4.02634 13.1281 4.07322C13.0812 4.12011 13.0549 4.1837 13.0549 4.25V4.5H12.5549V4.25C12.5549 4.1837 12.5285 4.12011 12.4816 4.07322C12.4348 4.02634 12.3712 4 12.3049 4V3.75Z" fill="black"/>
<path d="M4.55487 2.75H6.05487C6.12117 2.75 6.18476 2.72366 6.23165 2.67678C6.27853 2.62989 6.30487 2.5663 6.30487 2.5V1.75C6.30487 1.6837 6.27853 1.62011 6.23165 1.57322C6.18476 1.52634 6.12117 1.5 6.05487 1.5V1.25C6.05487 1.1837 6.02853 1.12011 5.98165 1.07322C5.93476 1.02634 5.87117 1 5.80487 1H4.80487C4.73857 1 4.67498 1.02634 4.62809 1.07322C4.58121 1.12011 4.55487 1.1837 4.55487 1.25V1.5C4.48857 1.5 4.42498 1.52634 4.37809 1.57322C4.33121 1.62011 4.30487 1.6837 4.30487 1.75V2.5C4.30487 2.5663 4.33121 2.62989 4.37809 2.67678C4.42498 2.72366 4.48857 2.75 4.55487 2.75ZM4.80487 2C4.87117 2 4.93476 1.97366 4.98165 1.92678C5.02853 1.87989 5.05487 1.8163 5.05487 1.75V1.5H5.55487V1.75C5.55487 1.8163 5.58121 1.87989 5.62809 1.92678C5.67498 1.97366 5.73857 2 5.80487 2V2.25H4.80487V2ZM7.05487 2.75H8.55487C8.62117 2.75 8.68476 2.72366 8.73165 2.67678C8.77853 2.62989 8.80487 2.5663 8.80487 2.5V1.75C8.80487 1.6837 8.77853 1.62011 8.73165 1.57322C8.68476 1.52634 8.62117 1.5 8.55487 1.5V1.25C8.55487 1.1837 8.52853 1.12011 8.48165 1.07322C8.43476 1.02634 8.37117 1 8.30487 1H7.30487C7.23857 1 7.17498 1.02634 7.12809 1.07322C7.08121 1.12011 7.05487 1.1837 7.05487 1.25V1.5C6.98857 1.5 6.92498 1.52634 6.87809 1.57322C6.83121 1.62011 6.80487 1.6837 6.80487 1.75V2.5C6.80487 2.5663 6.83121 2.62989 6.87809 2.67678C6.92498 2.72366 6.98857 2.75 7.05487 2.75ZM7.30487 2C7.37117 2 7.43476 1.97366 7.48165 1.92678C7.52853 1.87989 7.55487 1.8163 7.55487 1.75V1.5H8.05487V1.75C8.05487 1.8163 8.08121 1.87989 8.12809 1.92678C8.17498 1.97366 8.23857 2 8.30487 2V2.25H7.30487V2ZM9.55487 2.75H11.0549C11.1212 2.75 11.1848 2.72366 11.2316 2.67678C11.2785 2.62989 11.3049 2.5663 11.3049 2.5V1.75C11.3049 1.6837 11.2785 1.62011 11.2316 1.57322C11.1848 1.52634 11.1212 1.5 11.0549 1.5V1.25C11.0549 1.1837 11.0285 1.12011 10.9816 1.07322C10.9348 1.02634 10.8712 1 10.8049 1H9.80487C9.73857 1 9.67498 1.02634 9.62809 1.07322C9.58121 1.12011 9.55487 1.1837 9.55487 1.25V1.5C9.48857 1.5 9.42498 1.52634 9.37809 1.57322C9.33121 1.62011 9.30487 1.6837 9.30487 1.75V2.5C9.30487 2.5663 9.33121 2.62989 9.37809 2.67678C9.42498 2.72366 9.48857 2.75 9.55487 2.75ZM9.80487 2C9.87117 2 9.93476 1.97366 9.98165 1.92678C10.0285 1.87989 10.0549 1.8163 10.0549 1.75V1.5H10.5549V1.75C10.5549 1.8163 10.5812 1.87989 10.6281 1.92678C10.675 1.97366 10.7386 2 10.8049 2V2.25H9.80487V2ZM12.0549 2.75H13.5549C13.6212 2.75 13.6848 2.72366 13.7316 2.67678C13.7785 2.62989 13.8049 2.5663 13.8049 2.5V1.75C13.8049 1.6837 13.7785 1.62011 13.7316 1.57322C13.6848 1.52634 13.6212 1.5 13.5549 1.5V1.25C13.5549 1.1837 13.5285 1.12011 13.4816 1.07322C13.4348 1.02634 13.3712 1 13.3049 1H12.3049C12.2386 1 12.175 1.02634 12.1281 1.07322C12.0812 1.12011 12.0549 1.1837 12.0549 1.25V1.5C11.9886 1.5 11.925 1.52634 11.8781 1.57322C11.8312 1.62011 11.8049 1.6837 11.8049 1.75V2.5C11.8049 2.5663 11.8312 2.62989 11.8781 2.67678C11.925 2.72366 11.9886 2.75 12.0549 2.75ZM12.3049 2C12.3712 2 12.4348 1.97366 12.4816 1.92678C12.5285 1.87989 12.5549 1.8163 12.5549 1.75V1.5H13.0549V1.75C13.0549 1.8163 13.0812 1.87989 13.1281 1.92678C13.175 1.97366 13.2386 2 13.3049 2V2.25H12.3049V2ZM4.55487 4.5V4.75C4.55487 4.8163 4.58121 4.87989 4.62809 4.92678C4.67498 4.97366 4.73857 5 4.80487 5H5.80487C5.87117 5 5.93476 4.97366 5.98165 4.92678C6.02853 4.87989 6.05487 4.8163 6.05487 4.75V4.5C6.12117 4.5 6.18476 4.47366 6.23165 4.42678C6.27853 4.37989 6.30487 4.3163 6.30487 4.25V3.5C6.30487 3.4337 6.27853 3.37011 6.23165 3.32322C6.18476 3.27634 6.12117 3.25 6.05487 3.25H4.55487C4.48857 3.25 4.42498 3.27634 4.37809 3.32322C4.33121 3.37011 4.30487 3.4337 4.30487 3.5V4.25C4.30487 4.3163 4.33121 4.37989 4.37809 4.42678C4.42498 4.47366 4.48857 4.5 4.55487 4.5ZM4.80487 3.75H5.80487V4C5.73857 4 5.67498 4.02634 5.62809 4.07322C5.58121 4.12011 5.55487 4.1837 5.55487 4.25V4.5H5.05487V4.25C5.05487 4.1837 5.02853 4.12011 4.98165 4.07322C4.93476 4.02634 4.87117 4 4.80487 4V3.75ZM7.05487 4.5V4.75C7.05487 4.8163 7.08121 4.87989 7.12809 4.92678C7.17498 4.97366 7.23857 5 7.30487 5H8.30487C8.37117 5 8.43476 4.97366 8.48165 4.92678C8.52853 4.87989 8.55487 4.8163 8.55487 4.75V4.5C8.62117 4.5 8.68476 4.47366 8.73165 4.42678C8.77853 4.37989 8.80487 4.3163 8.80487 4.25V3.5C8.80487 3.4337 8.77853 3.37011 8.73165 3.32322C8.68476 3.27634 8.62117 3.25 8.55487 3.25H7.05487C6.98857 3.25 6.92498 3.27634 6.87809 3.32322C6.83121 3.37011 6.80487 3.4337 6.80487 3.5V4.25C6.80487 4.3163 6.83121 4.37989 6.87809 4.42678C6.92498 4.47366 6.98857 4.5 7.05487 4.5ZM7.30487 3.75H8.30487V4C8.23857 4 8.17498 4.02634 8.12809 4.07322C8.08121 4.12011 8.05487 4.1837 8.05487 4.25V4.5H7.55487V4.25C7.55487 4.1837 7.52853 4.12011 7.48165 4.07322C7.43476 4.02634 7.37117 4 7.30487 4V3.75ZM9.55487 4.5V4.75C9.55487 4.8163 9.58121 4.87989 9.62809 4.92678C9.67498 4.97366 9.73857 5 9.80487 5H10.8049C10.8712 5 10.9348 4.97366 10.9816 4.92678C11.0285 4.87989 11.0549 4.8163 11.0549 4.75V4.5C11.1212 4.5 11.1848 4.47366 11.2316 4.42678C11.2785 4.37989 11.3049 4.3163 11.3049 4.25V3.5C11.3049 3.4337 11.2785 3.37011 11.2316 3.32322C11.1848 3.27634 11.1212 3.25 11.0549 3.25H9.55487C9.48857 3.25 9.42498 3.27634 9.37809 3.32322C9.33121 3.37011 9.30487 3.4337 9.30487 3.5V4.25C9.30487 4.3163 9.33121 4.37989 9.37809 4.42678C9.42498 4.47366 9.48857 4.5 9.55487 4.5ZM9.80487 3.75H10.8049V4C10.7386 4 10.675 4.02634 10.6281 4.07322C10.5812 4.12011 10.5549 4.1837 10.5549 4.25V4.5H10.0549V4.25C10.0549 4.1837 10.0285 4.12011 9.98165 4.07322C9.93476 4.02634 9.87117 4 9.80487 4V3.75ZM12.0549 4.5V4.75C12.0549 4.8163 12.0812 4.87989 12.1281 4.92678C12.175 4.97366 12.2386 5 12.3049 5H13.3049C13.3712 5 13.4348 4.97366 13.4816 4.92678C13.5285 4.87989 13.5549 4.8163 13.5549 4.75V4.5C13.6212 4.5 13.6848 4.47366 13.7316 4.42678C13.7785 4.37989 13.8049 4.3163 13.8049 4.25V3.5C13.8049 3.4337 13.7785 3.37011 13.7316 3.32322C13.6848 3.27634 13.6212 3.25 13.5549 3.25H12.0549C11.9886 3.25 11.925 3.27634 11.8781 3.32322C11.8312 3.37011 11.8049 3.4337 11.8049 3.5V4.25C11.8049 4.3163 11.8312 4.37989 11.8781 4.42678C11.925 4.47366 11.9886 4.5 12.0549 4.5ZM12.3049 3.75H13.3049V4C13.2386 4 13.175 4.02634 13.1281 4.07322C13.0812 4.12011 13.0549 4.1837 13.0549 4.25V4.5H12.5549V4.25C12.5549 4.1837 12.5285 4.12011 12.4816 4.07322C12.4348 4.02634 12.3712 4 12.3049 4V3.75Z" fill="#273969"/>
<path d="M1.80487 2.5C2.08101 2.5 2.30487 2.27614 2.30487 2C2.30487 1.72386 2.08101 1.5 1.80487 1.5C1.52873 1.5 1.30487 1.72386 1.30487 2C1.30487 2.27614 1.52873 2.5 1.80487 2.5Z" fill="black"/>
<path d="M1.80487 2.5C2.08101 2.5 2.30487 2.27614 2.30487 2C2.30487 1.72386 2.08101 1.5 1.80487 1.5C1.52873 1.5 1.30487 1.72386 1.30487 2C1.30487 2.27614 1.52873 2.5 1.80487 2.5Z" fill="#273969"/>
<path d="M3.30487 2.5C3.58101 2.5 3.80487 2.27614 3.80487 2C3.80487 1.72386 3.58101 1.5 3.30487 1.5C3.02873 1.5 2.80487 1.72386 2.80487 2C2.80487 2.27614 3.02873 2.5 3.30487 2.5Z" fill="black"/>
<path d="M3.30487 2.5C3.58101 2.5 3.80487 2.27614 3.80487 2C3.80487 1.72386 3.58101 1.5 3.30487 1.5C3.02873 1.5 2.80487 1.72386 2.80487 2C2.80487 2.27614 3.02873 2.5 3.30487 2.5Z" fill="#273969"/>
<path d="M3.55487 3.25C3.55487 3.1837 3.52853 3.12011 3.48165 3.07322C3.43476 3.02634 3.37117 3 3.30487 3H1.80487C1.73857 3 1.67498 3.02634 1.62809 3.07322C1.58121 3.12011 1.55487 3.1837 1.55487 3.25C1.55487 3.3163 1.58121 3.37989 1.62809 3.42678C1.67498 3.47366 1.73857 3.5 1.80487 3.5H3.30487C3.37117 3.5 3.43476 3.47366 3.48165 3.42678C3.52853 3.37989 3.55487 3.3163 3.55487 3.25Z" fill="black"/>
<path d="M3.55487 3.25C3.55487 3.1837 3.52853 3.12011 3.48165 3.07322C3.43476 3.02634 3.37117 3 3.30487 3H1.80487C1.73857 3 1.67498 3.02634 1.62809 3.07322C1.58121 3.12011 1.55487 3.1837 1.55487 3.25C1.55487 3.3163 1.58121 3.37989 1.62809 3.42678C1.67498 3.47366 1.73857 3.5 1.80487 3.5H3.30487C3.37117 3.5 3.43476 3.47366 3.48165 3.42678C3.52853 3.37989 3.55487 3.3163 3.55487 3.25Z" fill="#273969"/>
</svg>
