<svg width="9" height="13" viewBox="0 0 9 13" fill="none" xmlns="http://www.w3.org/2000/svg">
<path d="M8.99998 6.52966C9.00084 6.40697 8.97247 6.28534 8.91652 6.17176C8.86056 6.05818 8.77811 5.95487 8.6739 5.86775L1.92736 0.274171C1.71563 0.0986223 1.42846 -6.24399e-08 1.12902 -4.93512e-08C0.829588 -3.62624e-08 0.542416 0.0986223 0.330683 0.274171C0.11895 0.44972 3.00654e-08 0.687815 4.09173e-08 0.936079C5.17692e-08 1.18434 0.11895 1.42244 0.330683 1.59799L6.29012 6.52966L0.341928 11.4613C0.157718 11.6397 0.0614603 11.8691 0.072391 12.1037C0.0833217 12.3383 0.200636 12.5609 0.40089 12.7269C0.601143 12.893 0.869586 12.9902 1.15258 12.9993C1.43557 13.0084 1.71226 12.9286 1.92736 12.7758L8.6739 7.18225C8.88163 7.0086 8.99874 6.77423 8.99998 6.52966Z" fill="#272727"/>
</svg>
