<svg width="14" height="13" viewBox="0 0 14 13" fill="none" xmlns="http://www.w3.org/2000/svg">
<path d="M12.4879 5.63092C12.4395 4.1551 11.8297 2.75337 10.783 1.71185C9.67919 0.607814 8.21217 0 6.65243 0C3.50219 0 0.928162 2.50742 0.817207 5.63092C0.574302 5.73852 0.367815 5.91425 0.222768 6.13683C0.0777213 6.35941 0.000339586 6.61928 0 6.88495V8.42559C0.000393094 8.7894 0.145089 9.13819 0.402341 9.39544C0.659592 9.6527 1.00839 9.79739 1.37219 9.79778C1.60758 9.7975 1.83325 9.70387 1.99969 9.53743C2.16614 9.37098 2.25977 9.14532 2.26005 8.90993V6.40039C2.26005 5.94066 1.90745 5.56579 1.45918 5.52124C1.62465 2.79997 3.89001 0.636454 6.65243 0.636454C8.04244 0.636454 9.34951 1.17829 10.3333 2.16203C11.2366 3.06537 11.7653 4.24281 11.8448 5.52145C11.397 5.56643 11.045 5.94109 11.045 6.40039V8.90972C11.045 9.37327 11.4031 9.75047 11.8567 9.78972V10.4238C11.8563 10.7672 11.7197 11.0964 11.4769 11.3392C11.2341 11.5819 10.9049 11.7185 10.5615 11.7188H9.60239C9.53773 11.5303 9.41565 11.3667 9.25329 11.2512C9.09093 11.1356 8.89645 11.0737 8.69714 11.0743H7.70852C7.56659 11.0743 7.43039 11.1044 7.30564 11.1626C7.13861 11.2397 6.99712 11.3631 6.89789 11.518C6.79865 11.6729 6.7458 11.853 6.74556 12.037C6.74556 12.2946 6.84591 12.5364 7.02772 12.7174C7.11684 12.8072 7.22291 12.8785 7.33978 12.927C7.45664 12.9755 7.58198 13.0003 7.70852 13H8.69714C9.10702 13 9.46831 12.735 9.60303 12.3553H10.5615C11.6267 12.3553 12.4932 11.4888 12.4932 10.4238V9.67643C12.7346 9.56823 12.9397 9.39258 13.0837 9.1706C13.2277 8.94862 13.3045 8.68976 13.3049 8.42517V6.88452C13.3049 6.32572 12.9684 5.84456 12.4879 5.63092ZM1.62338 6.40039V8.90972C1.62338 9.04825 1.51073 9.16112 1.37198 9.16112C1.17692 9.16089 0.989913 9.08331 0.851983 8.94538C0.714054 8.80745 0.636466 8.62044 0.636242 8.42538V6.88473C0.636466 6.68967 0.714054 6.50267 0.851983 6.36474C0.989913 6.22681 1.17692 6.14922 1.37198 6.14899C1.51073 6.14899 1.62338 6.26186 1.62338 6.40039ZM9.01643 12.1054C9.00062 12.1784 8.96032 12.2439 8.90222 12.2909C8.84411 12.338 8.77169 12.3637 8.69693 12.364H7.70831C7.62132 12.364 7.53965 12.33 7.47727 12.2677C7.44691 12.2375 7.42284 12.2016 7.40646 12.1621C7.39007 12.1226 7.38169 12.0802 7.3818 12.0375C7.38203 11.951 7.41651 11.8681 7.4777 11.8069C7.53888 11.7458 7.6218 11.7113 7.70831 11.7112H8.69693C8.78391 11.7112 8.86559 11.7449 8.92775 11.8073C8.98927 11.8686 9.02322 11.9505 9.02322 12.0375C9.02343 12.0608 9.02089 12.0841 9.01643 12.1054ZM12.6684 8.42538C12.6682 8.62044 12.5906 8.80745 12.4527 8.94538C12.3147 9.08331 12.1277 9.16089 11.9327 9.16112C11.866 9.16106 11.8021 9.13456 11.755 9.08742C11.7078 9.04029 11.6813 8.97638 11.6813 8.90972V6.40039C11.6813 6.26186 11.7939 6.14899 11.9327 6.14899C12.1277 6.14922 12.3147 6.22681 12.4527 6.36474C12.5906 6.50267 12.6682 6.68967 12.6684 6.88473V8.42538Z" fill="black"/>
<path d="M12.4879 5.63092C12.4395 4.1551 11.8297 2.75337 10.783 1.71185C9.67919 0.607814 8.21217 0 6.65243 0C3.50219 0 0.928162 2.50742 0.817207 5.63092C0.574302 5.73852 0.367815 5.91425 0.222768 6.13683C0.0777213 6.35941 0.000339586 6.61928 0 6.88495V8.42559C0.000393094 8.7894 0.145089 9.13819 0.402341 9.39544C0.659592 9.6527 1.00839 9.79739 1.37219 9.79778C1.60758 9.7975 1.83325 9.70387 1.99969 9.53743C2.16614 9.37098 2.25977 9.14532 2.26005 8.90993V6.40039C2.26005 5.94066 1.90745 5.56579 1.45918 5.52124C1.62465 2.79997 3.89001 0.636454 6.65243 0.636454C8.04244 0.636454 9.34951 1.17829 10.3333 2.16203C11.2366 3.06537 11.7653 4.24281 11.8448 5.52145C11.397 5.56643 11.045 5.94109 11.045 6.40039V8.90972C11.045 9.37327 11.4031 9.75047 11.8567 9.78972V10.4238C11.8563 10.7672 11.7197 11.0964 11.4769 11.3392C11.2341 11.5819 10.9049 11.7185 10.5615 11.7188H9.60239C9.53773 11.5303 9.41565 11.3667 9.25329 11.2512C9.09093 11.1356 8.89645 11.0737 8.69714 11.0743H7.70852C7.56659 11.0743 7.43039 11.1044 7.30564 11.1626C7.13861 11.2397 6.99712 11.3631 6.89789 11.518C6.79865 11.6729 6.7458 11.853 6.74556 12.037C6.74556 12.2946 6.84591 12.5364 7.02772 12.7174C7.11684 12.8072 7.22291 12.8785 7.33978 12.927C7.45664 12.9755 7.58198 13.0003 7.70852 13H8.69714C9.10702 13 9.46831 12.735 9.60303 12.3553H10.5615C11.6267 12.3553 12.4932 11.4888 12.4932 10.4238V9.67643C12.7346 9.56823 12.9397 9.39258 13.0837 9.1706C13.2277 8.94862 13.3045 8.68976 13.3049 8.42517V6.88452C13.3049 6.32572 12.9684 5.84456 12.4879 5.63092ZM1.62338 6.40039V8.90972C1.62338 9.04825 1.51073 9.16112 1.37198 9.16112C1.17692 9.16089 0.989913 9.08331 0.851983 8.94538C0.714054 8.80745 0.636466 8.62044 0.636242 8.42538V6.88473C0.636466 6.68967 0.714054 6.50267 0.851983 6.36474C0.989913 6.22681 1.17692 6.14922 1.37198 6.14899C1.51073 6.14899 1.62338 6.26186 1.62338 6.40039ZM9.01643 12.1054C9.00062 12.1784 8.96032 12.2439 8.90222 12.2909C8.84411 12.338 8.77169 12.3637 8.69693 12.364H7.70831C7.62132 12.364 7.53965 12.33 7.47727 12.2677C7.44691 12.2375 7.42284 12.2016 7.40646 12.1621C7.39007 12.1226 7.38169 12.0802 7.3818 12.0375C7.38203 11.951 7.41651 11.8681 7.4777 11.8069C7.53888 11.7458 7.6218 11.7113 7.70831 11.7112H8.69693C8.78391 11.7112 8.86559 11.7449 8.92775 11.8073C8.98927 11.8686 9.02322 11.9505 9.02322 12.0375C9.02343 12.0608 9.02089 12.0841 9.01643 12.1054ZM12.6684 8.42538C12.6682 8.62044 12.5906 8.80745 12.4527 8.94538C12.3147 9.08331 12.1277 9.16089 11.9327 9.16112C11.866 9.16106 11.8021 9.13456 11.755 9.08742C11.7078 9.04029 11.6813 8.97638 11.6813 8.90972V6.40039C11.6813 6.26186 11.7939 6.14899 11.9327 6.14899C12.1277 6.14922 12.3147 6.22681 12.4527 6.36474C12.5906 6.50267 12.6682 6.68967 12.6684 6.88473V8.42538Z" fill="#273969"/>
<path d="M8.71305 8.53506C9.07056 8.53467 9.41331 8.39247 9.66611 8.13968C9.9189 7.88688 10.0611 7.54413 10.0615 7.18663V4.43905C10.0615 4.07967 9.92105 3.74108 9.66604 3.48607C9.41103 3.23106 9.07265 3.09062 8.71305 3.09062H4.5918C4.2343 3.09101 3.89155 3.23321 3.63875 3.486C3.38596 3.7388 3.24376 4.08155 3.24337 4.43905V7.18663C3.24376 7.54413 3.38596 7.88688 3.63875 8.13968C3.89155 8.39247 4.2343 8.53467 4.5918 8.53506H4.61705V9.24704C4.61663 9.33398 4.6334 9.42014 4.6664 9.50057C4.6994 9.58101 4.74797 9.65412 4.80933 9.71572C4.87069 9.77731 4.94362 9.82617 5.02392 9.85947C5.10423 9.89278 5.19032 9.90988 5.27726 9.9098C5.36415 9.90998 5.45017 9.89265 5.53021 9.85886C5.61026 9.82508 5.68267 9.77552 5.74315 9.71314L6.92759 8.53506H8.71305ZM6.57224 7.9911L5.29042 9.26592C5.28469 9.27186 5.28045 9.27632 5.26835 9.27101C5.25372 9.26507 5.25372 9.25553 5.25372 9.24704V8.21683C5.25372 8.13243 5.22019 8.05149 5.16051 7.99181C5.10083 7.93213 5.01989 7.89861 4.93549 7.89861H4.59202C4.40326 7.89838 4.22229 7.8233 4.08882 7.68982C3.95534 7.55635 3.88026 7.37539 3.88004 7.18663V4.43905C3.88026 4.25029 3.95534 4.06933 4.08882 3.93586C4.22229 3.80238 4.40326 3.7273 4.59202 3.72707H8.71327C8.90293 3.72707 9.08135 3.80133 9.21628 3.93604C9.35121 4.07097 9.42525 4.2496 9.42525 4.43905V7.18663C9.42502 7.37539 9.34994 7.55635 9.21646 7.68982C9.08299 7.8233 8.90203 7.89838 8.71327 7.89861H6.79669C6.71247 7.89861 6.63185 7.93191 6.57224 7.9911Z" fill="black"/>
<path d="M8.71305 8.53506C9.07056 8.53467 9.41331 8.39247 9.66611 8.13968C9.9189 7.88688 10.0611 7.54413 10.0615 7.18663V4.43905C10.0615 4.07967 9.92105 3.74108 9.66604 3.48607C9.41103 3.23106 9.07265 3.09062 8.71305 3.09062H4.5918C4.2343 3.09101 3.89155 3.23321 3.63875 3.486C3.38596 3.7388 3.24376 4.08155 3.24337 4.43905V7.18663C3.24376 7.54413 3.38596 7.88688 3.63875 8.13968C3.89155 8.39247 4.2343 8.53467 4.5918 8.53506H4.61705V9.24704C4.61663 9.33398 4.6334 9.42014 4.6664 9.50057C4.6994 9.58101 4.74797 9.65412 4.80933 9.71572C4.87069 9.77731 4.94362 9.82617 5.02392 9.85947C5.10423 9.89278 5.19032 9.90988 5.27726 9.9098C5.36415 9.90998 5.45017 9.89265 5.53021 9.85886C5.61026 9.82508 5.68267 9.77552 5.74315 9.71314L6.92759 8.53506H8.71305ZM6.57224 7.9911L5.29042 9.26592C5.28469 9.27186 5.28045 9.27632 5.26835 9.27101C5.25372 9.26507 5.25372 9.25553 5.25372 9.24704V8.21683C5.25372 8.13243 5.22019 8.05149 5.16051 7.99181C5.10083 7.93213 5.01989 7.89861 4.93549 7.89861H4.59202C4.40326 7.89838 4.22229 7.8233 4.08882 7.68982C3.95534 7.55635 3.88026 7.37539 3.88004 7.18663V4.43905C3.88026 4.25029 3.95534 4.06933 4.08882 3.93586C4.22229 3.80238 4.40326 3.7273 4.59202 3.72707H8.71327C8.90293 3.72707 9.08135 3.80133 9.21628 3.93604C9.35121 4.07097 9.42525 4.2496 9.42525 4.43905V7.18663C9.42502 7.37539 9.34994 7.55635 9.21646 7.68982C9.08299 7.8233 8.90203 7.89838 8.71327 7.89861H6.79669C6.71247 7.89861 6.63185 7.93191 6.57224 7.9911Z" fill="#273969"/>
<path d="M5.10648 5.39416C4.84766 5.39416 4.63699 5.60504 4.63699 5.86365C4.63699 6.12226 4.84787 6.33314 5.10648 6.33314C5.36552 6.33314 5.5764 6.12226 5.5764 5.86365C5.5764 5.60504 5.36573 5.39416 5.10648 5.39416ZM6.65222 5.39416C6.39339 5.39416 6.18273 5.60504 6.18273 5.86365C6.18273 6.12226 6.3936 6.33314 6.65222 6.33314C6.91147 6.33314 7.12213 6.12226 7.12213 5.86365C7.12213 5.60504 6.91147 5.39416 6.65222 5.39416ZM8.19795 5.39416C7.93913 5.39416 7.72846 5.60504 7.72846 5.86365C7.72846 6.12226 7.93934 6.33314 8.19795 6.33314C8.45699 6.33314 8.66787 6.12226 8.66787 5.86365C8.66787 5.60504 8.45699 5.39416 8.19795 5.39416Z" fill="black"/>
<path d="M5.10648 5.39416C4.84766 5.39416 4.63699 5.60504 4.63699 5.86365C4.63699 6.12226 4.84787 6.33314 5.10648 6.33314C5.36552 6.33314 5.5764 6.12226 5.5764 5.86365C5.5764 5.60504 5.36573 5.39416 5.10648 5.39416ZM6.65222 5.39416C6.39339 5.39416 6.18273 5.60504 6.18273 5.86365C6.18273 6.12226 6.3936 6.33314 6.65222 6.33314C6.91147 6.33314 7.12213 6.12226 7.12213 5.86365C7.12213 5.60504 6.91147 5.39416 6.65222 5.39416ZM8.19795 5.39416C7.93913 5.39416 7.72846 5.60504 7.72846 5.86365C7.72846 6.12226 7.93934 6.33314 8.19795 6.33314C8.45699 6.33314 8.66787 6.12226 8.66787 5.86365C8.66787 5.60504 8.45699 5.39416 8.19795 5.39416Z" fill="#273969"/>
</svg>
