<svg width="36" height="36" viewBox="0 0 36 36" fill="none" xmlns="http://www.w3.org/2000/svg">
<path d="M7.50966 14.3202C7.4921 14.7 7.16992 14.9936 6.79011 14.976C6.41037 14.9583 6.11671 14.6362 6.13435 14.2564C6.15199 13.8766 6.4741 13.583 6.85391 13.6007C7.23364 13.6183 7.52723 13.9405 7.50966 14.3202ZM34.9831 25.7738L32.9174 26.5747C32.7344 26.6458 32.5399 26.6823 32.3436 26.6824C31.7051 26.6824 31.1014 26.2956 30.8571 25.6655L30.6768 25.2007L28.9956 25.9022C29.0767 26.3784 28.9987 26.8735 28.7623 27.3035C28.4817 27.8136 28.0171 28.1833 27.454 28.3444C27.4309 28.3511 27.4076 28.3574 27.3843 28.3632C27.5682 28.9174 27.5314 29.5414 27.2311 30.0873C26.788 30.8931 25.9043 31.3062 25.0429 31.1919C25.0701 31.6003 24.9797 32.0078 24.7823 32.3663C24.5026 32.875 24.0397 33.244 23.479 33.4053C23.1285 33.5062 22.7675 33.5177 22.4228 33.4428C22.4347 33.8278 22.343 34.2089 22.1572 34.5462C21.8774 35.0549 21.3947 35.437 20.8331 35.5944C20.6425 35.6482 20.4455 35.6755 20.2476 35.6757C19.8828 35.6757 19.5243 35.5814 19.2019 35.3961L18.6324 35.0691C18.35 35.4666 17.9458 35.7588 17.4694 35.9032C17.259 35.9672 17.0405 35.9998 16.8206 36C16.458 35.9998 16.1011 35.9099 15.7817 35.7383C15.3122 35.4879 14.9489 35.0766 14.7584 34.5799C14.1569 34.8357 13.4514 34.8239 12.8421 34.4981C12.4106 34.2673 12.0787 33.9052 11.8805 33.4795C11.2466 33.8227 10.4589 33.8522 9.77894 33.4886C8.9286 33.0337 8.4953 32.1 8.63349 31.1969C8.25296 31.2061 7.87653 31.1165 7.54087 30.937C7.0204 30.6587 6.639 30.1927 6.46691 29.6248C6.29482 29.057 6.3534 28.4576 6.63174 27.9371L7.1877 26.8977C7.06344 26.6022 7.00219 26.2793 6.94347 25.9636C6.837 25.3911 6.75411 25.0364 6.50095 24.9381C6.4013 24.8995 6.16498 24.8011 5.29859 24.4149L5.07527 24.9202C4.90376 25.3082 4.59043 25.6067 4.19306 25.7605C4.00904 25.8321 3.81335 25.8689 3.6159 25.8691C3.39766 25.8691 3.18014 25.8237 2.97503 25.7331L0.948598 24.8374C0.145575 24.4824 -0.219065 23.5402 0.13585 22.7372L4.78814 12.2106C4.95965 11.8226 5.27305 11.5243 5.67042 11.3705C6.06801 11.2167 6.50059 11.2265 6.88845 11.398L8.91481 12.2936C9.30282 12.4651 9.60127 12.7784 9.75499 13.1758C9.90879 13.5732 9.89899 14.0058 9.72756 14.3938L9.37859 15.1833L10.6976 15.7918C10.7117 15.7984 10.7255 15.8054 10.739 15.813C11.1281 16.032 11.5268 16.0814 11.9607 16.0464C10.5529 14.3781 9.78802 12.2768 9.78802 10.0214V3.851C9.78802 3.73737 9.82137 3.62623 9.88393 3.53137C9.94649 3.43651 10.0355 3.36209 10.14 3.31733L17.7711 0.0469196C17.8433 0.0159622 17.9212 0 17.9998 0C18.0784 0 18.1563 0.0159622 18.2285 0.0469196L25.8597 3.31733C25.9642 3.36209 26.0532 3.43651 26.1157 3.53137C26.1783 3.62623 26.2117 3.73737 26.2117 3.851V10.0214C26.2117 12.3367 25.4046 14.4922 23.9228 16.1814C24.7518 16.4986 25.3275 16.6459 25.8635 16.367L27.0136 15.7514L26.6971 14.9348C26.3797 14.1162 26.7875 13.1919 27.6062 12.8745L29.6719 12.0737C30.4902 11.7564 31.4149 12.1641 31.7323 12.9828L35.8923 23.7135C36.2097 24.5322 35.8018 25.4564 34.9831 25.7738ZM10.9494 10.0214C10.9494 12.2276 11.7822 14.2641 13.3004 15.7905C13.6323 15.7132 13.9839 15.6346 14.3545 15.5811C12.7657 14.2164 11.8203 12.2424 11.8203 10.0214V5.19103C11.8203 4.95877 11.9587 4.7488 12.1723 4.65735L17.7711 2.25789C17.8434 2.22694 17.9212 2.21097 17.9999 2.21097C18.0785 2.21097 18.1563 2.22694 18.2286 2.25789L23.8276 4.65735C23.932 4.70212 24.021 4.77654 24.0836 4.8714C24.1461 4.96626 24.1795 5.07739 24.1795 5.19103V10.0214C24.1795 12.141 23.3078 14.0783 21.7881 15.454C22.1277 15.5268 22.4504 15.6251 22.7566 15.7326C24.2382 14.2128 25.0505 12.1987 25.0505 10.0214V4.23386L17.9998 1.21232L10.9494 4.23386V10.0214ZM19.922 15.3845C21.8905 14.2439 23.0181 12.2945 23.0181 10.0214V5.57395L17.9998 3.42329L12.9816 5.57388V10.0214C12.9816 12.9583 14.956 15.3853 17.9167 16.124C18.6318 15.7053 19.2992 15.4795 19.922 15.3845ZM8.66542 13.9243C8.68827 13.8726 8.70062 13.8168 8.70176 13.7602C8.70291 13.7037 8.69283 13.6474 8.6721 13.5948C8.65201 13.5419 8.62162 13.4936 8.58272 13.4525C8.54381 13.4115 8.49715 13.3786 8.44544 13.3557L6.41901 12.46C6.20192 12.3642 5.94644 12.4626 5.85035 12.6801L1.19776 23.2065C1.15167 23.3111 1.14895 23.4297 1.1902 23.5363C1.23146 23.6429 1.31332 23.7288 1.41783 23.7752L3.44425 24.6707C3.54862 24.7169 3.66562 24.7192 3.77369 24.6773C3.88176 24.6354 3.96676 24.5549 4.01284 24.4507L8.66542 13.9243ZM9.2346 29.8139L10.5617 27.517C10.78 27.0149 10.577 26.4247 10.0929 26.1663C9.57913 25.8921 8.9384 26.0861 8.66412 26.5988L7.65555 28.4847C7.52345 28.7317 7.49595 29.017 7.57803 29.2879C7.66019 29.5588 7.84143 29.7809 8.08834 29.9129C8.45625 30.1097 8.90675 30.068 9.2346 29.8139ZM11.758 32.0254L13.2241 29.1863C13.3126 28.7362 13.0943 28.2645 12.689 28.0482C12.3178 27.85 11.8641 27.8936 11.536 28.1522L9.89362 31.0363C9.61927 31.5494 9.81342 32.19 10.3266 32.4645C10.839 32.7385 11.4811 32.5416 11.758 32.0254ZM14.7255 33.1828L16.0257 30.6839C16.1139 30.234 15.8956 29.7628 15.4906 29.5466C15.0868 29.3311 14.5768 29.4087 14.252 29.7268L12.8356 32.4696C12.8079 32.882 13.0231 33.278 13.3896 33.474C13.8454 33.7178 14.4136 33.5915 14.7255 33.1828ZM17.7574 34.2815L18.7246 32.473C18.915 32.117 18.882 31.6746 18.6404 31.3461C18.5484 31.2207 18.4292 31.1177 18.2918 31.0448C17.8881 30.8291 17.3776 30.9071 17.0527 31.2259L15.778 33.6759C15.7351 34.1012 15.9497 34.5113 16.3293 34.7143C16.5761 34.8463 16.8613 34.8738 17.1324 34.7917C17.4034 34.7096 17.6254 34.5285 17.7574 34.2815ZM20.7403 32.6122C20.709 32.5946 19.9975 32.1808 19.9975 32.1808C19.9714 32.4707 19.8897 32.7568 19.7487 33.0206L19.1962 34.0538L19.7801 34.3892C20.0022 34.5168 20.2649 34.5476 20.5196 34.4763C20.7831 34.4024 21.0091 34.2239 21.1396 33.9866C21.4063 33.5016 21.2272 32.8851 20.7403 32.6122ZM27.7633 25.8225C27.6711 25.6324 27.5234 25.4748 27.3396 25.3707L21.8455 22.2392C20.9125 21.7073 19.747 22.1792 18.3976 22.7255C17.3887 23.1339 16.2547 23.5928 15.1056 23.593C13.9828 23.5931 12.8459 23.1551 11.7958 21.8041C11.7283 21.7174 11.6802 21.6173 11.6546 21.5106C11.629 21.4038 11.6266 21.2928 11.6474 21.185C11.6682 21.0772 11.7119 20.9751 11.7754 20.8855C11.839 20.7959 11.9209 20.721 12.0158 20.6657C13.5651 19.7615 14.8737 18.7745 15.9051 17.7322C16.1803 17.4541 16.4495 17.2059 16.7129 16.9839C15.525 16.4628 14.509 16.7001 13.4437 16.9496C12.3908 17.1963 11.3023 17.4514 10.191 16.8369L8.909 16.2455L5.76775 23.3527C6.54544 23.6992 6.82734 23.8191 6.92097 23.8554C7.69503 24.1559 7.91495 24.8953 8.04 25.5166C8.71289 24.8557 9.76436 24.6746 10.6396 25.1418C11.2879 25.4877 11.6972 26.1167 11.7903 26.8003C12.2836 26.709 12.7932 26.7878 13.2358 27.0238C13.4973 27.163 13.7282 27.3534 13.9147 27.5837C14.1011 27.8139 14.2393 28.0794 14.3211 28.3642C14.6031 28.2744 14.9004 28.2421 15.1952 28.2693C15.49 28.2964 15.7763 28.3824 16.0373 28.5221C16.2988 28.6613 16.5297 28.8517 16.7162 29.0819C16.9026 29.3122 17.0408 29.5776 17.1226 29.8624C17.4047 29.7725 17.702 29.7402 17.9969 29.7674C18.2918 29.7945 18.5782 29.8806 18.8391 30.0206C19.0956 30.157 19.3223 30.3432 19.506 30.5683L22.3981 32.2053C22.6294 32.3338 22.899 32.3636 23.1576 32.2893C23.4192 32.2139 23.6348 32.0426 23.7646 31.8066C24.0298 31.3244 23.8493 30.7091 23.3622 30.435C23.3305 30.4172 19.3035 28.1396 19.3035 28.1396C19.2371 28.1022 19.1786 28.052 19.1315 27.9921C19.0844 27.9321 19.0496 27.8634 19.0291 27.79C19.0085 27.7166 19.0026 27.6398 19.0117 27.5641C19.0209 27.4884 19.0448 27.4152 19.0822 27.3488C19.1196 27.2823 19.1697 27.2239 19.2297 27.1768C19.2896 27.1297 19.3583 27.0949 19.4317 27.0743C19.5052 27.0538 19.5819 27.0479 19.6576 27.057C19.7333 27.0661 19.8065 27.09 19.873 27.1274L24.8448 29.9251C25.3316 30.1925 25.9457 30.0143 26.2133 29.5276C26.4786 29.0453 26.2981 28.43 25.811 28.1559L25.8105 28.1556C24.6439 27.5022 23.3217 26.7616 22.026 26.0199C21.7477 25.8606 21.6513 25.5058 21.8105 25.2275C21.9697 24.9493 22.3244 24.8527 22.6029 25.0121C23.8946 25.7516 25.2148 26.491 26.3795 27.1434C26.6086 27.2717 26.8766 27.3018 27.1342 27.228C27.3975 27.1527 27.6141 26.9808 27.7444 26.7439C27.902 26.4578 27.9088 26.1219 27.7633 25.8225ZM30.2569 24.1176L27.4364 16.8422L26.4054 17.3941C25.2864 17.9762 24.1912 17.5403 23.132 17.1188C21.3734 16.4188 19.5548 15.6951 16.7306 18.5491C15.7184 19.572 14.465 20.5401 13.0003 21.431C14.5042 23.0492 16.1144 22.3971 17.9617 21.6493C19.4546 21.0448 20.9984 20.4199 22.4205 21.2304L27.9147 24.3619C28.1379 24.4888 28.3372 24.6537 28.5037 24.8491L30.2569 24.1176ZM34.8095 24.1332L30.6495 13.4025C30.6081 13.296 30.526 13.2103 30.4214 13.1641C30.3168 13.118 30.1982 13.1152 30.0916 13.1564L28.0259 13.9572C27.9194 13.9986 27.8337 14.0806 27.7875 14.1852C27.7414 14.2898 27.7386 14.4084 27.7797 14.515L31.9397 25.2458C31.9812 25.3523 32.0632 25.438 32.1678 25.4842C32.2724 25.5303 32.391 25.5331 32.4976 25.4919L34.5634 24.6911C34.6699 24.6496 34.7556 24.5676 34.8018 24.463C34.8479 24.3584 34.8507 24.2398 34.8095 24.1332ZM29.6043 14.2758C29.2252 14.2758 28.9159 14.585 28.9159 14.9642C28.9159 15.3434 29.2252 15.6526 29.6043 15.6526C29.9835 15.6526 30.2927 15.3434 30.2927 14.9642C30.2927 14.585 29.9835 14.2758 29.6043 14.2758ZM18.2463 12.6398C18.1062 12.7807 17.9395 12.8924 17.7559 12.9684C17.5723 13.0444 17.3755 13.0833 17.1768 13.0828C16.9781 13.0833 16.7813 13.0444 16.5977 12.9684C16.4141 12.8924 16.2474 12.7807 16.1073 12.6398L14.0424 10.5749C13.4528 9.98523 13.4527 9.02566 14.0424 8.43596C14.3281 8.15029 14.7079 7.99301 15.112 7.99301C15.516 7.99301 15.8959 8.15029 16.1815 8.43596L17.1726 9.42717L19.8172 6.75634C19.9565 6.61495 20.1225 6.50264 20.3055 6.42593C20.4886 6.34921 20.685 6.30963 20.8835 6.30947H20.8894C21.0872 6.30892 21.2832 6.34749 21.4661 6.42294C21.649 6.4984 21.8152 6.60926 21.9551 6.74915C22.5446 7.33544 22.5478 8.29334 21.9621 8.8845C21.502 9.34886 21.043 9.81445 20.584 10.28C19.8198 11.055 19.0297 11.8564 18.2463 12.6398ZM17.4251 11.8186C18.2057 11.0381 18.9943 10.2382 19.757 9.46469C20.2167 8.99845 20.6764 8.5322 21.1372 8.06711C21.273 7.93001 21.2726 7.70821 21.1362 7.57256C21.0697 7.50651 20.9814 7.47313 20.8879 7.47073C20.8422 7.47076 20.797 7.47986 20.7549 7.4975C20.7127 7.51514 20.6745 7.54098 20.6424 7.5735L17.5873 10.659C17.5335 10.7133 17.4694 10.7565 17.3989 10.786C17.3283 10.8156 17.2526 10.8309 17.1761 10.8311H17.1747C17.0207 10.8311 16.873 10.7699 16.7641 10.661L15.3603 9.25719C15.294 9.19085 15.2057 9.15435 15.1119 9.15435C15.018 9.15435 14.9298 9.19085 14.8635 9.25719C14.7977 9.3231 14.7608 9.41243 14.7608 9.50556C14.7608 9.59868 14.7977 9.68801 14.8635 9.75392L16.9283 11.8187C16.9609 11.8514 16.9996 11.8774 17.0422 11.895C17.0849 11.9127 17.1306 11.9217 17.1767 11.9216C17.2229 11.9217 17.2686 11.9127 17.3112 11.895C17.3539 11.8773 17.3926 11.8514 17.4251 11.8186Z" fill="white"/>
</svg>
