<svg width="31" height="22" viewBox="0 0 31 22" fill="none" xmlns="http://www.w3.org/2000/svg">
<path d="M29.1061 2.47848C28.0232 1.19807 26.0238 0.675781 22.2055 0.675781H8.345C4.43929 0.675781 2.40607 1.23176 1.32723 2.59495C0.275391 3.92407 0.275391 5.88242 0.275391 8.59282V13.7588C0.275391 19.0098 1.52339 21.6758 8.345 21.6758H22.2056C25.5168 21.6758 27.3516 21.2149 28.5387 20.0849C29.756 18.9262 30.2754 17.0343 30.2754 13.7588V8.59282C30.2754 5.73447 30.194 3.76457 29.1061 2.47848ZM19.5355 11.889L13.2415 15.1609C13.094 15.2377 12.9291 15.2753 12.7627 15.2701C12.5963 15.2649 12.4341 15.2172 12.2917 15.1314C12.1493 15.0456 12.0316 14.9247 11.9499 14.7804C11.8683 14.6362 11.8254 14.4734 11.8255 14.3078V7.78503C11.8255 7.61971 11.8683 7.45717 11.9498 7.31309C12.0313 7.169 12.1488 7.04823 12.2908 6.9624C12.4329 6.87657 12.5948 6.82858 12.7609 6.82305C12.927 6.81752 13.0918 6.85465 13.2393 6.93085L19.5333 10.1816C19.6903 10.2628 19.8221 10.3852 19.9141 10.5356C20.0061 10.686 20.0548 10.8586 20.0551 11.0347C20.0553 11.2107 20.007 11.3835 19.9154 11.5341C19.8238 11.6847 19.6924 11.8075 19.5355 11.889Z" fill="white"/>
</svg>
